<?xml version="1.0" encoding="utf-8"?>
<!-- Generator: Adobe Illustrator 19.0.0, SVG Export Plug-In . SVG Version: 6.00 Build 0)  -->
<svg version="1.1" id="Слой_1" xmlns="http://www.w3.org/2000/svg" xmlns:xlink="http://www.w3.org/1999/xlink" x="0px" y="0px"
	 viewBox="0 0 582.5 137" style="enable-background:new 0 0 582.5 137;" xml:space="preserve">
<style type="text/css">
	.st0{fill:#FFFFFF;}
</style>
<path d="M391.5,60.3c-12.1,0.5-23.2,0.9-34.4,1.7c-1.5,0.1-3.8,2.7-3.9,4.2c-0.4,6.7-0.2,13.5-0.2,19c3.5,1.2,5.6,1.9,7.6,2.6
	c-1.1,2.4-1.8,6.3-3.5,6.8c-2.3,0.8-6.6-0.2-7.9-2c-4.5-6.2-3.9-13.7-3.3-21c0.8-9.9,1.2-19.7,1.8-30.8c-4.6,1.7-8.1,3.1-12,4.5
	c-2.2-3.5-1.7-6.4,2.2-7.9c4.2-1.7,8.6-3.7,12.9-3.9c14.9-0.6,29.9-0.6,44.9-0.7c2,0,4.3,0.6,5.7,1.8c1,0.9,1.6,4.1,1,4.8
	c-1.2,1.1-3.5,1.5-5.3,1.5c-13.7-0.2-27.3-0.6-41-0.9c-0.8,0-1.5,0.5-2.4,0.8C353.8,43,354,45,354,47c-0.1,5,2.9,7.3,7.2,7.1
	c10.5-0.4,21.3-3,31.5-1.5c7.9,1.1,14-2.5,21-2.9c6.6-0.4,9.8,4.4,11.8,10.1c3.2-2.3,6.1-5.4,9.6-6.7c4.1-1.6,9.6-3.5,12.9-1.9
	c5.8,2.8,11.1,1.8,16.9,1.7c12-0.2,24,0.2,36,0.7c2.3,0.1,4.6,1.9,7.1,3c-5.4,9.7-14.8-0.4-20.3,7.5c3.8,0.2,7.7,0.2,11.5,0.6
	c1.8,0.2,3.6,1,5.4,1.5c-1.7,1.8-3.1,5-5,5.2c-5.1,0.7-10.3,0.3-16.8,0.3c1.5,1.8,2.2,3.2,3.3,4c6.3,4.2,18.1,2.8,22.8-2.8
	c0.8-1,0.7-2.9,0.8-4.4c0.1-3.1-0.3-6.2,0.1-9.3c0.5-4,3.2-6.6,7.2-6.1c7.3,0.8,14.6,2.1,21.8,3.9c1.8,0.4,4.4,3.8,4.1,5.1
	c-0.6,2.2-3,4.5-5.1,5.4c-4.7,1.9-9.8,3-15.1,4.5c8.7,5.7,19.9,6,26.3,0.7c2.4-2,5.1-3.5,6.5-0.1c0.7,1.8-0.7,5.9-2.3,7
	c-8,5-16.9,4.7-25.9,3c-1-0.2-2-0.5-3.5-0.8c-0.8,1.3-1.3,3.4-2.4,3.9c-2.1,0.9-5.6,2.1-6.7,1.2c-3.3-3-6.4-2.3-10.2-2
	c-5.9,0.5-12.1,0.5-17.8-0.7c-11.3-2.4-14-12.1-7.1-24.6c-4.4,0-8.6,0-12.5,0c0.3,4.5,0.2,9.1,1,13.4c0.4,2.1,2.3,4.1,3.7,5.9
	c1.9,2.5,3.7,4.8,0.2,7.3c-3.1,2.2-6.3,3.3-8.2-1.1c-1.3-2.9-1.9-6.2-2.4-9.4c-0.4-3.3-0.1-6.6-0.3-9.9c-0.3-3.9-2-6.2-6.5-4.9
	c-3.2,0.9-5.7,0.5-8.9-1.9c-5-3.7-8.4,1.5-13.9,5c4.7,1.7,7.8,2.7,10.9,4c4,1.7,8.3,3,11.7,5.5c3.7,2.7,4.9,7.4-0.2,9.5
	c-8.1,3.5-16.6,5.9-25.1,8.2c-1.5,0.4-4.2-0.9-5.4-2.3c-1.4-1.6-2.5-4.2-2.4-6.3c0.1-1.3,3-3.7,4.2-3.5c1.9,0.5,3.4,2.7,6,5
	c4.6-1.6,10.4-3.5,16.2-5.4c-0.1-0.5-0.1-1-0.2-1.5c-7.6-3-15.2-6.1-23-9.2c-2.5,8.8-8.7,15.7-18.8,18.8c-5.8,1.8-12,1.9-16.2-2.9
	c-4.6-5.3-2.8-11.7-0.7-17.7C389,64.2,390.2,62.7,391.5,60.3z M419.3,61.2c-0.7-0.8-2.1-3.6-4.2-4.5c-2.9-1.2-5.4,0.1-6.5,3.8
	c-0.4,1.4-2.9,2.1-4.2,3.3c-3.5,3.4-7.2,6.6-10.2,10.5c-0.5,0.7,1.8,5.2,3.5,5.7C406.1,82.7,419.2,72.2,419.3,61.2z M514.6,57.5
	c0.6,3.1,1.1,5.3,1.6,8c5.9-1.2,11.2-2.3,16.5-3.4c0-0.6,0-1.1,0-1.7"/>
<path d="M189.1,69.5c-4.7-0.4-9.4,0.1-14.2,1c-2,0.4-4.1,1.3-6.1,1.1c-2-0.2-3.8-1.4-5.8-2.1c1.5-1.6,2.7-4,4.5-4.7
	c6.3-2.5,13.1-4.1,19.2-6.9c5-2.3,9.6-5.6,14-9c3.9-3,2.3-6.1-1.6-7.4c-11.9-4-23.7-2.4-35.4,1.4c-1.3,0.4-2.8,2.8-2.8,4.2
	c0.4,10.3,1,20.7,1.9,31c0.5,5.3,3.5,9.1,8.3,11.6c1.3,0.6,1.9,2.7,2.8,4c-1.7,0.7-3.3,2-5.1,2.1c-4.1,0.2-6.8-1.2-9-5.5
	c-5.7-10.8-5.6-22.4-6.1-34c-0.1-2.6,0-5.3,0-9.8c-4.4,3.4-7.2,6.1-10.5,7.8c-1.9,1-5.9,1.5-6.8,0.5c-2.3-2.7-1.1-5.6,2.1-7.7
	c17.8-11.6,37-16.4,58.1-13.2c2.6,0.4,5.3,1.4,7.6,2.7c7.5,4.2,8.4,10.2,2.1,16c-4.1,3.9-9,7-13.7,10.6c5.6,1.8,10.9,3.6,16.7,5.5
	c0.5-1.4,0.7-3.6,1.9-5c1.3-1.5,3.7-3.3,5.4-3.1c3.4,0.4,3.9,3.1,2.6,6.1c-0.7,1.5-1.6,3-1.8,4.6c-0.4,3.3-2,7.3,3.2,8.7
	c3.7,0.9,9.2-2.8,9.7-6.6c0.5-3.9,0.2-8,1.4-11.7c0.8-2.5,3.2-6.2,5.1-6.3c4.3-0.2,4.7,3.2,3.8,7.1c-1,4.4-1.3,9-1.6,13.5
	c-0.1,1,0.8,2.1,1.2,3.2c0.7,1.9,2.5,5.1,1.9,5.6c-1.8,1.7-4.5,3.2-6.9,3.3c-6.9,0.2-13.9-0.4-20.8-0.4c-1.7,0-3.4,1.3-5,2.1
	c-12.1,6-31.4,2.4-40.3-7.4c-3.3-3.7-3.2-4.4,1.2-7.1c5.7,7.9,22.3,12.8,31.9,9.2c1.9-0.7,4.6-3.1,4.4-4.3c-0.4-2.3-2.1-5.2-4.1-6.3
	C198.3,71.1,193.7,69.9,189.1,69.5"/>
<path d="M260.6,84.9c-1,1.7-2.3,4-3.7,6.2c-2.2-1.9-5.7-3.4-6.3-5.7c-1.4-5.3-1.4-11-1.8-16c-2-1.6-3.8-3-5.6-4.4
	c2-1.6,3.7-3.8,6-4.6c9.2-3.4,18.7-3.9,28-0.6c2.6,0.9,5.9,4.2,6.1,6.5c0.1,2.4-2.9,5.3-5.2,7.4c-2,1.9-4.9,2.9-7.8,4.5
	c14.4,5.5,20.7,2.6,20.9-9.1c-2.1-2.8-4.7-5.2-4.3-6.1c1-2.2,3.4-5,5.4-5.2c11.7-1.1,23.5-1.7,35.3-2c1.3,0,3.8,2.7,3.7,4
	c-0.2,2.2-1.6,4.7-3.3,6.1c-1.2,1-4.8,1.2-5.4,0.3c-3.8-5.3-8.5-2.4-13.7-2.4c1.4,6.5,3.2,12.5,3.7,18.6c0.2,2.7-1.7,7.4-3.7,8.1
	c-4.2,1.5-5.1-2.3-5.5-6c-0.6-6.8-1.5-13.6-2.2-20.4c-0.8-0.1-1.6-0.3-2.4-0.4c-0.6,1.2-1.9,2.5-1.9,3.6c0.9,16.9-7.8,24-22.1,20.7
	C269.7,86.9,264.5,85.8,260.6,84.9z M255.9,65.7c-1.7,6,1.1,8.1,6.2,6.9c4.4-1,8.5-3.1,12.7-4.7c-0.2-0.7-0.3-1.5-0.5-2.2
	C268.2,65.7,262.1,65.7,255.9,65.7z"/>
<g>
	<path d="M27.2,67.9c-1.5,1.8-2.8,3.5-4.1,5.1c-0.8-2.2-2.3-4.3-2.4-6.5c-0.1-4.4,0.6-8.9,1-12.9c-2.2-0.5-5.3-0.2-6.6-1.6
		c-2.6-2.6-0.3-5.3,1.3-8c1.8-2.9,1.2-7.6,6.5-7.4c0-3.1,0-6,0-9.7c-2.5,1.6-4.7,2.8-6.6,4.2c-2.4,1.8-4.8,3.5-7.4,0.6
		c-1.8-2-0.1-7.1,2.9-8.4c5.5-2.4,11-4.6,16.7-6.5c12.7-4.2,25.8-6.7,39.2-4.5c11.5,1.9,13.8,4.7,14.1,16c8.1,0.4,16.2,0.7,24.3,1.3
		c3.6,0.2,7.4,0.4,10.8,1.7c2.7,1,5.9,3.1,6.9,5.5c1.6,3.7,0.1,8-3.5,10c-7.7,4.4-15.5,9.1-23.8,11.9c-17.8,6-36.3,9.6-55.2,9.9
		C36.6,68.9,31.8,68.2,27.2,67.9z M42.1,51.8c-3.3,2.9-5.8,5.1-9.1,7.9c1.7,0.3,2.5,0.5,3.2,0.5c15.9,0.6,31.6-1.1,46.9-5.2
		c10.5-2.8,20.6-7.3,30.8-11.2c1.6-0.6,2.8-2.3,4.8-4.2c-3.2-0.9-5.3-1.7-7.3-1.9c-19.4-1.6-38.8-2.7-58,2.4
		c-5.4,1.4-11,2.6-16.5,3.7c-8.4,1.6-8.4,1.5-8.4,10C32.8,53.4,36.4,48.1,42.1,51.8z M74.4,23.7c-15.4-6.8-30.2-3.1-44.9,1.3
		c0.4,3.9,0.7,7.3,1.1,11.4C45.3,31.5,61.1,32.4,74.4,23.7z"/>
	<path d="M29.8,93.5c28.7-7.7,57.7-10.2,87.1-9.8c-5.3,4.6-11.8,5.1-18,6.1c-21.4,3.5-43.3,3.9-63.9,11.9c-4.7,1.8-7.3,4.1-6.3,9.5
		c0.8,4.1,1.2,8.2,1.4,12.3c0.1,1.6-0.9,3.2-1.4,4.7c-1.6-1.1-4.4-1.8-4.7-3.2c-1.1-4.1-1.5-8.4-1.7-12.7
		c-0.3-6.6-0.1-13.2-0.1-18.5c-2-2.9-4.8-5.2-4.6-7.1c0.3-2.2,3-5.4,5.1-5.9c14.3-3.4,28.6-7.1,43.1-9.1c15.3-2.1,30.8-2.6,46.2-3.5
		c1.9-0.1,3.9,1.4,5.8,2.1c-1.8,1.5-3.4,4.2-5.4,4.5c-9,1.3-18.2,1.7-27.2,3c-16.2,2.2-32.5,4.5-48.6,7.5
		C30.4,86.4,30.2,87.6,29.8,93.5z"/>
</g>
<path class="st0" d="M391.5,57.3c-12.1,0.5-23.2,0.9-34.4,1.7c-1.5,0.1-3.8,2.7-3.9,4.2c-0.4,6.7-0.2,13.5-0.2,19
	c3.5,1.2,5.6,1.9,7.6,2.6c-1.1,2.4-1.8,6.3-3.5,6.8c-2.3,0.8-6.6-0.2-7.9-2c-4.5-6.2-3.9-13.7-3.3-21c0.8-9.9,1.2-19.7,1.8-30.8
	c-4.6,1.7-8.1,3.1-12,4.5c-2.2-3.5-1.7-6.4,2.2-7.9c4.2-1.7,8.6-3.7,12.9-3.9c14.9-0.6,29.9-0.6,44.9-0.7c2,0,4.3,0.6,5.7,1.8
	c1,0.9,1.6,4.1,1,4.8c-1.2,1.1-3.5,1.5-5.3,1.5c-13.7-0.2-27.3-0.6-41-0.9c-0.8,0-1.5,0.5-2.4,0.8c0.1,2.2,0.4,4.2,0.4,6.2
	c-0.1,5,2.9,7.3,7.2,7.1c10.5-0.4,21.3-3,31.5-1.5c7.9,1.1,14-2.5,21-2.9c6.6-0.4,9.8,4.4,11.8,10.1c3.2-2.3,6.1-5.4,9.6-6.7
	c4.1-1.6,9.6-3.5,12.9-1.9c5.8,2.8,11.1,1.8,16.9,1.7c12-0.2,24,0.2,36,0.7c2.3,0.1,4.6,1.9,7.1,3c-5.4,9.7-14.8-0.4-20.3,7.5
	c3.8,0.2,7.7,0.2,11.5,0.6c1.8,0.2,3.6,1,5.4,1.5c-1.7,1.8-3.1,5-5,5.2c-5.1,0.7-10.3,0.3-16.8,0.3c1.5,1.8,2.2,3.2,3.3,4
	c6.3,4.2,18.1,2.8,22.8-2.8c0.8-1,0.7-2.9,0.8-4.4c0.1-3.1-0.3-6.2,0.1-9.3c0.5-4,3.2-6.6,7.2-6.1c7.3,0.8,14.6,2.1,21.8,3.9
	c1.8,0.4,4.4,3.8,4.1,5.1c-0.6,2.2-3,4.5-5.1,5.4c-4.7,1.9-9.8,3-15.1,4.5c8.7,5.7,19.9,6,26.3,0.7c2.4-2,5.1-3.5,6.5-0.1
	c0.7,1.8-0.7,5.9-2.3,7c-8,5-16.9,4.7-25.9,3c-1-0.2-2-0.5-3.5-0.8c-0.8,1.3-1.3,3.4-2.4,3.9c-2.1,0.9-5.6,2.1-6.7,1.2
	c-3.3-3-6.4-2.3-10.2-2c-5.9,0.5-12.1,0.5-17.8-0.7c-11.3-2.4-14-12.1-7.1-24.6c-4.4,0-8.6,0-12.5,0c0.3,4.5,0.2,9.1,1,13.4
	c0.4,2.1,2.3,4.1,3.7,5.9c1.9,2.5,3.7,4.8,0.2,7.3c-3.1,2.2-6.3,3.3-8.2-1.1c-1.3-2.9-1.9-6.2-2.4-9.4c-0.4-3.3-0.1-6.6-0.3-9.9
	c-0.3-3.9-2-6.2-6.5-4.9c-3.2,0.9-5.7,0.5-8.9-1.9c-5-3.7-8.4,1.5-13.9,5c4.7,1.7,7.8,2.7,10.9,4c4,1.7,8.3,3,11.7,5.5
	c3.7,2.7,4.9,7.4-0.2,9.5c-8.1,3.5-16.6,5.9-25.1,8.2c-1.5,0.4-4.2-0.9-5.4-2.3c-1.4-1.6-2.5-4.2-2.4-6.3c0.1-1.3,3-3.7,4.2-3.5
	c1.9,0.5,3.4,2.7,6,5c4.6-1.6,10.4-3.5,16.2-5.4c-0.1-0.5-0.1-1-0.2-1.5c-7.6-3-15.2-6.1-23-9.2c-2.5,8.8-8.7,15.7-18.8,18.8
	c-5.8,1.8-12,1.9-16.2-2.9c-4.6-5.3-2.8-11.7-0.7-17.7C389,61.2,390.2,59.7,391.5,57.3z M419.3,58.3c-0.7-0.8-2.1-3.6-4.2-4.5
	c-2.9-1.2-5.4,0.1-6.5,3.8c-0.4,1.4-2.9,2.1-4.2,3.3c-3.5,3.4-7.2,6.6-10.2,10.5c-0.5,0.7,1.8,5.2,3.5,5.7
	C406.1,79.8,419.2,69.3,419.3,58.3z M514.6,54.6c0.6,3.1,1.1,5.3,1.6,8c5.9-1.2,11.2-2.3,16.5-3.4c0-0.6,0-1.1,0-1.7"/>
<path class="st0" d="M170.4,71.9c5.7,7.9,22.3,12.8,31.9,9.2c1.9-0.7,4.6-3.1,4.4-4.3c-0.4-2.3-2.1-5.2-4.1-6.3
	c-8.7-4.8-18.2-4.8-27.8-3c-2,0.4-4.1,1.3-6.1,1.1c-2-0.2-3.8-1.4-5.8-2.1c1.5-1.6,2.7-4,4.5-4.7c6.3-2.5,13.1-4.1,19.2-6.9
	c5-2.3,9.6-5.6,14-9c3.9-3,2.3-6.1-1.6-7.4c-11.9-4-23.7-2.4-35.4,1.4c-1.3,0.4-2.8,2.8-2.8,4.2c0.4,10.3,1,20.7,1.9,31
	c0.5,5.3,3.5,9.1,8.3,11.6c1.3,0.6,1.9,2.7,2.8,4c-1.7,0.7-3.3,2-5.1,2.1c-4.1,0.2-6.8-1.2-9-5.5c-5.7-10.8-5.6-22.4-6.1-34
	c-0.1-2.6,0-5.3,0-9.8c-4.4,3.4-7.2,6.1-10.5,7.8c-1.9,1-5.9,1.5-6.8,0.5c-2.3-2.7-1.1-5.6,2.1-7.7c17.8-11.6,37-16.4,58.1-13.2
	c2.6,0.4,5.3,1.4,7.6,2.7c7.5,4.2,8.4,10.2,2.1,16c-4.1,3.9-9,7-13.7,10.6c5.6,1.8,10.9,3.6,16.7,5.5c0.5-1.4,0.7-3.6,1.9-5
	c1.3-1.5,3.7-3.3,5.4-3.1c3.4,0.4,3.9,3.1,2.6,6.1c-0.7,1.5-1.6,3-1.8,4.6c-0.4,3.3-2,7.3,3.2,8.7c3.7,0.9,9.2-2.8,9.7-6.6
	c0.5-3.9,0.2-8,1.4-11.7c0.8-2.5,3.2-6.2,5.1-6.3c4.3-0.2,4.7,3.2,3.8,7.1c-1,4.4-1.3,9-1.6,13.5c-0.1,1,0.8,2.1,1.2,3.2
	c0.7,1.9,2.5,5.1,1.9,5.6c-1.8,1.7-4.5,3.2-6.9,3.3c-6.9,0.2-13.9-0.4-20.8-0.4c-1.7,0-3.4,1.3-5,2.1c-12.1,6-31.4,2.4-40.3-7.4
	C165.8,75.4,165.9,74.7,170.4,71.9z"/>
<path class="st0" d="M260.6,81.9c-1,1.7-2.3,4-3.7,6.2c-2.2-1.9-5.7-3.4-6.3-5.7c-1.4-5.3-1.4-11-1.8-16c-2-1.6-3.8-3-5.6-4.4
	c2-1.6,3.7-3.8,6-4.6c9.2-3.4,18.7-3.9,28-0.6c2.6,0.9,5.9,4.2,6.1,6.5c0.1,2.4-2.9,5.3-5.2,7.4c-2,1.9-4.9,2.9-7.8,4.5
	c14.4,5.5,20.7,2.6,20.9-9.1c-2.1-2.8-4.7-5.2-4.3-6.1c1-2.2,3.4-5,5.4-5.2c11.7-1.1,23.5-1.7,35.3-2c1.3,0,3.8,2.7,3.7,4
	c-0.2,2.2-1.6,4.7-3.3,6.1c-1.2,1-4.8,1.2-5.4,0.3c-3.8-5.3-8.5-2.4-13.7-2.4c1.4,6.5,3.2,12.5,3.7,18.6c0.2,2.7-1.7,7.4-3.7,8.1
	c-4.2,1.5-5.1-2.3-5.5-6c-0.6-6.8-1.5-13.6-2.2-20.4c-0.8-0.1-1.6-0.3-2.4-0.4c-0.6,1.2-1.9,2.5-1.9,3.6c0.9,16.9-7.8,24-22.1,20.7
	C269.7,84,264.5,82.8,260.6,81.9z M255.9,62.7c-1.7,6,1.1,8.1,6.2,6.9c4.4-1,8.5-3.1,12.7-4.7c-0.2-0.7-0.3-1.5-0.5-2.2
	C268.2,62.7,262.1,62.7,255.9,62.7z"/>
<g>
	<path class="st0" d="M27.2,65.6c-1.5,1.8-2.8,3.5-4.1,5.1c-0.8-2.2-2.3-4.3-2.4-6.5c-0.1-4.4,0.6-8.9,1-12.9
		c-2.2-0.5-5.3-0.2-6.6-1.6c-2.6-2.6-0.3-5.3,1.3-8c1.8-2.9,1.2-7.6,6.5-7.4c0-3.1,0-6,0-9.7c-2.5,1.6-4.7,2.8-6.6,4.2
		c-2.4,1.8-4.8,3.5-7.4,0.6c-1.8-2-0.1-7.1,2.9-8.4c5.5-2.4,11-4.6,16.7-6.5c12.7-4.2,25.8-6.7,39.2-4.5c11.5,1.9,13.8,4.7,14.1,16
		c8.1,0.4,16.2,0.7,24.3,1.3c3.6,0.2,7.4,0.4,10.8,1.7c2.7,1,5.9,3.1,6.9,5.5c1.6,3.7,0.1,8-3.5,10c-7.7,4.4-15.5,9.1-23.8,11.9
		c-17.8,6-36.3,9.6-55.2,9.9C36.6,66.5,31.8,65.9,27.2,65.6z M42.1,49.5c-3.3,2.9-5.8,5.1-9.1,7.9c1.7,0.3,2.5,0.5,3.2,0.5
		c15.9,0.6,31.6-1.1,46.9-5.2c10.5-2.8,20.6-7.3,30.8-11.2c1.6-0.6,2.8-2.3,4.8-4.2c-3.2-0.9-5.3-1.7-7.3-1.9
		c-19.4-1.6-38.8-2.7-58,2.4c-5.4,1.4-11,2.6-16.5,3.7c-8.4,1.6-8.4,1.5-8.4,10C32.8,51.1,36.4,45.7,42.1,49.5z M74.4,21.4
		c-15.4-6.8-30.2-3.1-44.9,1.3c0.4,3.9,0.7,7.3,1.1,11.4C45.3,29.1,61.1,30.1,74.4,21.4z"/>
	<path class="st0" d="M29.8,91.1c28.7-7.7,57.7-10.2,87.1-9.8c-5.3,4.6-11.8,5.1-18,6.1C77.5,91,55.5,91.4,35,99.4
		c-4.7,1.8-7.3,4.1-6.3,9.5c0.8,4.1,1.2,8.2,1.4,12.3c0.1,1.6-0.9,3.2-1.4,4.7c-1.6-1.1-4.4-1.8-4.7-3.2c-1.1-4.1-1.5-8.4-1.7-12.7
		c-0.3-6.6-0.1-13.2-0.1-18.5c-2-2.9-4.8-5.2-4.6-7.1c0.3-2.2,3-5.4,5.1-5.9c14.3-3.4,28.6-7.1,43.1-9.1c15.3-2.1,30.8-2.6,46.2-3.5
		c1.9-0.1,3.9,1.4,5.8,2.1c-1.8,1.5-3.4,4.2-5.4,4.5c-9,1.3-18.2,1.7-27.2,3c-16.2,2.2-32.5,4.5-48.6,7.5
		C30.4,84,30.2,85.3,29.8,91.1z"/>
</g>
<g>
	<path class="st0" d="M421.4,40.1h-1.5c0.1-1.5,0.2-3.1,0.2-4.8c0-0.9-0.2-1.5-0.5-1.9c-0.3-0.3-0.8-0.5-1.4-0.5
		c-0.9,0-1.6,0.3-2.4,0.9c0,3.1,0,5.2,0.1,6.3h-1.5c0.1-1.5,0.1-3.6,0.1-6.3c0-2.4-0.1-4.3-0.2-5.6l1.6-0.1c0,1.7-0.1,3.3-0.1,4.8
		h0.1c0.9-0.7,1.8-1.1,2.8-1.1c0.9,0,1.6,0.2,2.1,0.6c0.5,0.4,0.8,1.2,0.8,2.2c0,0.1,0,0.3,0,0.6c0,0.3,0,0.6,0,0.8
		C421.3,36.8,421.3,38.2,421.4,40.1z"/>
	<path class="st0" d="M430,40.1l-1.3,0.1c-0.1-0.3-0.1-0.5-0.1-0.8h-0.1c-0.7,0.6-1.6,1-2.9,1c-0.7,0-1.2-0.2-1.7-0.6
		c-0.5-0.4-0.7-0.9-0.7-1.6c0-0.9,0.4-1.6,1.1-2.1c0.7-0.5,2.1-0.8,4.1-0.8c0-0.1,0-0.3,0-0.5c0-0.7-0.2-1.2-0.6-1.4
		c-0.4-0.2-0.9-0.3-1.7-0.3c-0.9,0-1.8,0.1-2.6,0.3l0.1-1.2c0.9-0.2,1.8-0.4,2.9-0.4c1,0,1.8,0.2,2.3,0.6c0.5,0.4,0.8,1.1,0.8,2.1
		c0,0.3,0,0.8,0,1.5c0,0.7,0,1.2,0,1.4C429.7,38.3,429.8,39.3,430,40.1z M428.5,38.4c0-0.9,0-1.6,0-2.3c-1.1,0-1.9,0.1-2.4,0.2
		c-0.9,0.3-1.4,0.8-1.4,1.6c0,0.8,0.5,1.2,1.6,1.2C427.2,39.1,427.9,38.9,428.5,38.4z"/>
	<path class="st0" d="M439.3,40.1h-1.5c0.1-1.5,0.2-3.1,0.2-4.9c0-0.9-0.2-1.5-0.5-1.8c-0.4-0.3-0.9-0.5-1.5-0.5
		c-0.8,0-1.5,0.3-2.2,0.9c0,1.9,0,4,0,6.3h-1.5c0.1-1.9,0.1-3.3,0.1-4.2c0-1.3-0.1-2.6-0.4-3.9l1.5-0.2l0.2,1h0.1
		c0.8-0.8,1.7-1.1,2.7-1.1c0.9,0,1.7,0.2,2.2,0.6c0.5,0.4,0.8,1.2,0.8,2.2c0,0.1,0,0.3,0,0.6c0,0.3,0,0.5,0,0.6
		C439.3,36.8,439.3,38.2,439.3,40.1z"/>
	<path class="st0" d="M448.9,40.1l-1.3,0c0-0.2-0.1-0.5-0.1-0.8h-0.1c-0.6,0.6-1.5,1-2.7,1c-1.1,0-1.9-0.4-2.6-1.2
		c-0.6-0.8-1-1.7-1-2.8c0-1.3,0.4-2.3,1.1-3.2c0.7-0.9,1.7-1.4,3-1.4c0.9,0,1.6,0.2,2,0.6h0.1c0-1.4,0-2.8-0.1-4.1l1.6-0.1
		c-0.1,1.4-0.2,3.3-0.2,5.7C448.7,36.1,448.8,38.2,448.9,40.1z M447.5,38.4c0-1.8,0-3.5-0.1-5.1c-0.5-0.4-1-0.6-1.7-0.6
		c-1,0-1.7,0.3-2.2,1s-0.7,1.4-0.7,2.4c0,0.9,0.2,1.6,0.7,2.2s1.1,0.9,1.9,0.9C446.4,39.1,447.1,38.9,447.5,38.4z"/>
	<path class="st0" d="M461.9,35.1c0-0.9-0.2-1.5-0.5-1.8c-0.3-0.3-0.8-0.4-1.6-0.4c-0.6,0-1.2,0.3-1.9,0.9c0,0.7,0,1.4,0,2
		c0,0.9,0,2.4,0.1,4.2h-1.5c0.1-1.6,0.2-3.3,0.2-4.9c0-0.9-0.2-1.5-0.5-1.8c-0.3-0.3-0.8-0.4-1.5-0.4c-0.7,0-1.4,0.3-2,0.9
		c0,1.8,0,3.9,0,6.3h-1.5c0.1-1.9,0.2-3.3,0.2-4.2c0-1.3-0.1-2.6-0.4-3.9l1.5-0.2l0.2,1h0.1c0.7-0.8,1.6-1.1,2.5-1.1
		c1.3,0,2.2,0.4,2.6,1.1h0.1c0.9-0.8,1.7-1.1,2.5-1.1c1,0,1.7,0.2,2.2,0.6c0.5,0.4,0.7,1.2,0.7,2.2c0,0.1,0,0.3,0,0.6
		c0,0.3,0,0.5,0,0.6c0,0.9,0,2.4,0,4.2h-1.5C461.8,38.6,461.9,36.9,461.9,35.1z"/>
	<path class="st0" d="M471.8,40.1l-1.3,0.1c-0.1-0.3-0.1-0.5-0.1-0.8h-0.1c-0.7,0.6-1.6,1-2.9,1c-0.7,0-1.2-0.2-1.7-0.6
		c-0.5-0.4-0.7-0.9-0.7-1.6c0-0.9,0.4-1.6,1.1-2.1c0.7-0.5,2.1-0.8,4.1-0.8c0-0.1,0-0.3,0-0.5c0-0.7-0.2-1.2-0.6-1.4
		c-0.4-0.2-0.9-0.3-1.7-0.3c-0.9,0-1.8,0.1-2.6,0.3l0.1-1.2c0.9-0.2,1.8-0.4,2.9-0.4c1,0,1.8,0.2,2.3,0.6c0.5,0.4,0.8,1.1,0.8,2.1
		c0,0.3,0,0.8,0,1.5c0,0.7,0,1.2,0,1.4C471.6,38.3,471.7,39.3,471.8,40.1z M470.3,38.4c0-0.9,0-1.6,0-2.3c-1.1,0-1.9,0.1-2.4,0.2
		c-0.9,0.3-1.4,0.8-1.4,1.6c0,0.8,0.5,1.2,1.6,1.2C469,39.1,469.8,38.9,470.3,38.4z"/>
	<path class="st0" d="M481.3,40.1l-1.3,0c0-0.2-0.1-0.5-0.1-0.8h-0.1c-0.6,0.6-1.5,1-2.7,1c-1.1,0-1.9-0.4-2.6-1.2
		c-0.6-0.8-1-1.7-1-2.8c0-1.3,0.4-2.3,1.1-3.2c0.7-0.9,1.7-1.4,3-1.4c0.9,0,1.6,0.2,2,0.6h0.1c0-1.4,0-2.8-0.1-4.1l1.6-0.1
		c-0.1,1.4-0.2,3.3-0.2,5.7C481.1,36.1,481.2,38.2,481.3,40.1z M480,38.4c0-1.8,0-3.5-0.1-5.1c-0.5-0.4-1-0.6-1.7-0.6
		c-1,0-1.7,0.3-2.2,1c-0.5,0.6-0.7,1.4-0.7,2.4c0,0.9,0.2,1.6,0.7,2.2s1.1,0.9,1.9,0.9C478.8,39.1,479.5,38.9,480,38.4z"/>
	<path class="st0" d="M490.6,35.1c0,0.2,0,0.6,0,1l-5.8,0.1c0.1,0.8,0.4,1.5,1,2.1s1.4,0.8,2.3,0.8c0.9,0,1.7-0.1,2.4-0.3l-0.1,1.2
		c-0.6,0.2-1.4,0.3-2.4,0.3c-1.5,0-2.6-0.4-3.4-1.2c-0.8-0.8-1.2-1.8-1.2-2.9c0-1.2,0.4-2.3,1.1-3.2c0.7-0.9,1.7-1.3,2.8-1.3
		c1.1,0,1.9,0.3,2.5,1C490.3,33.2,490.6,34.1,490.6,35.1z M489.1,35.1c0-1.6-0.7-2.4-2-2.4c-1.4,0-2.2,0.8-2.4,2.5L489.1,35.1z"/>
	<path class="st0" d="M503.6,40.1h-2c0-0.2-0.5-1-1.6-2.3c-1.1-1.4-1.8-2-2.1-2h-0.1c0,1.2,0,2.6,0.1,4.3h-1.5
		c0.1-2.1,0.1-4.2,0.1-6.3c0-2.2-0.1-4.1-0.2-5.6l1.6-0.1c-0.1,1.2-0.1,3.6-0.1,7.1h0.1c0.2,0,0.8-0.5,1.8-1.4c1-1,1.5-1.5,1.5-1.7
		h1.9c0,0.2-0.4,0.7-1.3,1.4c-0.8,0.7-1.6,1.3-2.3,1.8v0.1c0.7,0.5,1.6,1.4,2.7,2.7C503.1,39.2,503.6,39.9,503.6,40.1z"/>
	<path class="st0" d="M512,40.1h-1.5c0.1-1.5,0.2-3.1,0.2-4.9c0-0.9-0.2-1.5-0.5-1.8c-0.4-0.3-0.9-0.5-1.5-0.5
		c-0.8,0-1.5,0.3-2.2,0.9c0,1.9,0,4,0,6.3h-1.5c0.1-1.9,0.1-3.3,0.1-4.2c0-1.3-0.1-2.6-0.4-3.9l1.5-0.2l0.2,1h0.1
		c0.8-0.8,1.7-1.1,2.7-1.1c0.9,0,1.7,0.2,2.2,0.6c0.5,0.4,0.8,1.2,0.8,2.2c0,0.1,0,0.3,0,0.6c0,0.3,0,0.5,0,0.6
		C512,36.8,512,38.2,512,40.1z"/>
	<path class="st0" d="M515.8,40.1h-1.5c0.1-1.1,0.1-2.4,0.1-3.9c0-1.6-0.1-3-0.3-4.1l1.7-0.2c-0.1,1.2-0.1,2.6-0.1,4.4
		C515.7,37.5,515.7,38.8,515.8,40.1z M516.1,29.4c0,0.3-0.1,0.5-0.3,0.8c-0.2,0.2-0.5,0.3-0.8,0.3c-0.3,0-0.5-0.1-0.7-0.3
		c-0.2-0.2-0.2-0.4-0.2-0.7c0-0.3,0.1-0.5,0.3-0.7c0.2-0.2,0.5-0.3,0.8-0.3c0.3,0,0.5,0.1,0.7,0.3C516.1,29,516.1,29.2,516.1,29.4z"
		/>
	<path class="st0" d="M524.9,32c0,0.3-0.6,1.6-1.7,4c-1.1,2.4-1.7,3.8-1.7,4.1h-1.1c0-0.4-0.5-1.8-1.5-4.2c-1-2.4-1.5-3.7-1.5-3.9
		h1.7c0,0.3,0.4,1.4,1.1,3.2c0.7,1.9,1.1,3,1.1,3.2h0.1c0-0.3,0.3-1.3,1.1-3.1c0.7-1.8,1-2.9,1-3.4H524.9z"/>
	<path class="st0" d="M533.4,35.1c0,0.2,0,0.6,0,1l-5.8,0.1c0.1,0.8,0.4,1.5,1,2.1c0.6,0.6,1.4,0.8,2.3,0.8c0.9,0,1.7-0.1,2.4-0.3
		l-0.1,1.2c-0.6,0.2-1.4,0.3-2.4,0.3c-1.5,0-2.6-0.4-3.4-1.2c-0.8-0.8-1.2-1.8-1.2-2.9c0-1.2,0.4-2.3,1.1-3.2
		c0.7-0.9,1.7-1.3,2.8-1.3c1.1,0,1.9,0.3,2.5,1C533.1,33.2,533.4,34.1,533.4,35.1z M532,35.1c0-1.6-0.7-2.4-2-2.4
		c-1.4,0-2.2,0.8-2.4,2.5L532,35.1z"/>
	<path class="st0" d="M540.8,37.8c0,1.7-1.1,2.5-3.2,2.5c-0.9,0-1.8-0.1-2.6-0.3l0.3-1.3c0.7,0.3,1.5,0.4,2.4,0.4
		c1.2,0,1.9-0.4,1.9-1.1c0-0.3-0.1-0.6-0.4-0.8c-0.3-0.2-0.7-0.4-1.4-0.7c-0.8-0.3-1.4-0.6-1.8-0.9c-0.5-0.4-0.8-1-0.8-1.6
		c0-0.6,0.2-1.2,0.7-1.7c0.5-0.5,1.2-0.7,2.2-0.7c1,0,1.8,0.1,2.3,0.2l-0.3,1.2c-0.6-0.2-1.3-0.4-2.1-0.4c-1.1,0-1.6,0.3-1.6,0.9
		c0,0.3,0.1,0.6,0.4,0.8c0.2,0.2,0.7,0.4,1.4,0.7c0.8,0.3,1.3,0.6,1.7,0.9C540.5,36.6,540.8,37.1,540.8,37.8z"/>
</g>
</svg>
