<?xml version="1.0" encoding="utf-8"?>
<!-- Generator: Adobe Illustrator 19.0.0, SVG Export Plug-In . SVG Version: 6.00 Build 0)  -->
<svg version="1.1" id="Слой_1" xmlns="http://www.w3.org/2000/svg" xmlns:xlink="http://www.w3.org/1999/xlink" x="0px" y="0px"
	 viewBox="0 0 129 135" style="enable-background:new 0 0 129 135;" xml:space="preserve">
<style type="text/css">
	.st0{fill:#FFFFFF;}
</style>
<g>
	<path class="st0" d="M27,66.3c-1.5,1.8-2.8,3.5-4.1,5.1c-0.8-2.2-2.3-4.3-2.4-6.5c-0.1-4.4,0.6-8.9,1-12.9
		c-2.2-0.5-5.3-0.2-6.6-1.6c-2.6-2.6-0.3-5.3,1.3-8c1.8-2.9,1.2-7.6,6.5-7.4c0-3.1,0-6,0-9.7c-2.5,1.6-4.7,2.8-6.6,4.2
		c-2.4,1.8-4.8,3.5-7.4,0.6c-1.8-2-0.1-7.1,2.9-8.4c5.5-2.4,11-4.6,16.7-6.5c12.7-4.2,25.8-6.7,39.2-4.5c11.5,1.9,13.8,4.7,14.1,16
		c8.1,0.4,16.2,0.7,24.3,1.3c3.6,0.2,7.4,0.4,10.8,1.7c2.7,1,5.9,3.1,6.9,5.5c1.6,3.7,0.1,8-3.5,10c-7.7,4.4-15.5,9.1-23.8,11.9
		c-17.8,6-36.3,9.6-55.2,9.9C36.4,67.3,31.6,66.6,27,66.3z M41.9,50.2c-3.3,2.9-5.8,5.1-9.1,7.9c1.7,0.3,2.5,0.5,3.2,0.5
		C52,59.2,67.7,57.5,83,53.4c10.5-2.8,20.6-7.3,30.8-11.2c1.6-0.6,2.8-2.3,4.8-4.2c-3.2-0.9-5.3-1.7-7.3-1.9
		c-19.4-1.6-38.8-2.7-58,2.4c-5.4,1.4-11,2.6-16.5,3.7c-8.4,1.6-8.4,1.5-8.4,10C32.6,51.8,36.2,46.5,41.9,50.2z M74.2,22.1
		C58.8,15.3,44,19,29.3,23.5c0.4,3.9,0.7,7.3,1.1,11.4C45.1,29.9,60.9,30.9,74.2,22.1z"/>
	<path class="st0" d="M29.6,91.9c28.7-7.7,57.7-10.2,87.1-9.8c-5.3,4.6-11.8,5.1-18,6.1c-21.4,3.5-43.3,3.9-63.9,11.9
		c-4.7,1.8-7.3,4.1-6.3,9.5c0.8,4.1,1.2,8.2,1.4,12.3c0.1,1.6-0.9,3.2-1.4,4.7c-1.6-1.1-4.4-1.8-4.7-3.2c-1.1-4.1-1.5-8.4-1.7-12.7
		c-0.3-6.6-0.1-13.2-0.1-18.5c-2-2.9-4.8-5.2-4.6-7.1c0.3-2.2,3-5.4,5.1-5.9c14.3-3.4,28.6-7.1,43.1-9.1c15.3-2.1,30.8-2.6,46.2-3.5
		c1.9-0.1,3.9,1.4,5.8,2.1c-1.8,1.5-3.4,4.2-5.4,4.5c-9,1.3-18.2,1.7-27.2,3c-16.2,2.2-32.5,4.5-48.6,7.5C30.3,84.8,30,86,29.6,91.9
		z"/>
</g>
</svg>
