<?xml version="1.0" encoding="utf-8"?>
<!-- Generator: Adobe Illustrator 19.0.0, SVG Export Plug-In . SVG Version: 6.00 Build 0)  -->
<svg version="1.1" id="Слой_1" xmlns="http://www.w3.org/2000/svg" xmlns:xlink="http://www.w3.org/1999/xlink" x="0px" y="0px"
	 viewBox="-14 328 582.5 137" style="enable-background:new -14 328 582.5 137;" xml:space="preserve">
<path d="M377.5,388.3c-12.1,0.5-23.2,0.9-34.4,1.7c-1.5,0.1-3.8,2.7-3.9,4.2c-0.4,6.7-0.2,13.5-0.2,19c3.5,1.2,5.6,1.9,7.6,2.6
	c-1.1,2.4-1.8,6.3-3.5,6.8c-2.3,0.8-6.6-0.2-7.9-2c-4.5-6.2-3.9-13.7-3.3-21c0.8-9.9,1.2-19.7,1.8-30.8c-4.6,1.7-8.1,3.1-12,4.5
	c-2.2-3.5-1.7-6.4,2.2-7.9c4.2-1.7,8.6-3.7,12.9-3.9c14.9-0.6,29.9-0.6,44.9-0.7c2,0,4.3,0.6,5.7,1.8c1,0.9,1.6,4.1,1,4.8
	c-1.2,1.1-3.5,1.5-5.3,1.5c-13.7-0.2-27.3-0.6-41-0.9c-0.8,0-1.5,0.5-2.4,0.8c0.1,2.2,0.3,4.2,0.3,6.2c-0.1,5,2.9,7.3,7.2,7.1
	c10.5-0.4,21.3-3,31.5-1.5c7.9,1.1,14-2.5,21-2.9c6.6-0.4,9.8,4.4,11.8,10.1c3.2-2.3,6.1-5.4,9.6-6.7c4.1-1.6,9.6-3.5,12.9-1.9
	c5.8,2.8,11.1,1.8,16.9,1.7c12-0.2,24,0.2,36,0.7c2.3,0.1,4.6,1.9,7.1,3c-5.4,9.7-14.8-0.4-20.3,7.5c3.8,0.2,7.7,0.2,11.5,0.6
	c1.8,0.2,3.6,1,5.4,1.5c-1.7,1.8-3.1,5-5,5.2c-5.1,0.7-10.3,0.3-16.8,0.3c1.5,1.8,2.2,3.2,3.3,4c6.3,4.2,18.1,2.8,22.8-2.8
	c0.8-1,0.7-2.9,0.8-4.4c0.1-3.1-0.3-6.2,0.1-9.3c0.5-4,3.2-6.6,7.2-6.1c7.3,0.8,14.6,2.1,21.8,3.9c1.8,0.4,4.4,3.8,4.1,5.1
	c-0.6,2.2-3,4.5-5.1,5.4c-4.7,1.9-9.8,3-15.1,4.5c8.7,5.7,19.9,6,26.3,0.7c2.4-2,5.1-3.5,6.5-0.1c0.7,1.8-0.7,5.9-2.3,7
	c-8,5-16.9,4.7-25.9,3c-1-0.2-2-0.5-3.5-0.8c-0.8,1.3-1.3,3.4-2.4,3.9c-2.1,0.9-5.6,2.1-6.7,1.2c-3.3-3-6.4-2.3-10.2-2
	c-5.9,0.5-12.1,0.5-17.8-0.7c-11.3-2.4-14-12.1-7.1-24.6c-4.4,0-8.6,0-12.5,0c0.3,4.5,0.2,9.1,1,13.4c0.4,2.1,2.3,4.1,3.7,5.9
	c1.9,2.5,3.7,4.8,0.2,7.3c-3.1,2.2-6.3,3.3-8.2-1.1c-1.3-2.9-1.9-6.2-2.4-9.4c-0.4-3.3-0.1-6.6-0.3-9.9c-0.3-3.9-2-6.2-6.5-4.9
	c-3.2,0.9-5.7,0.5-8.9-1.9c-5-3.7-8.4,1.5-13.9,5c4.7,1.7,7.8,2.7,10.9,4c4,1.7,8.3,3,11.7,5.5c3.7,2.7,4.9,7.4-0.2,9.5
	c-8.1,3.5-16.6,5.9-25.1,8.2c-1.5,0.4-4.2-0.9-5.4-2.3c-1.4-1.6-2.5-4.2-2.4-6.3c0.1-1.3,3-3.7,4.2-3.5c1.9,0.5,3.4,2.7,6,5
	c4.6-1.6,10.4-3.5,16.2-5.4c-0.1-0.5-0.1-1-0.2-1.5c-7.6-3-15.2-6.1-23-9.2c-2.5,8.8-8.7,15.7-18.8,18.8c-5.8,1.8-12,1.9-16.2-2.9
	c-4.6-5.3-2.8-11.7-0.7-17.7C375,392.2,376.2,390.7,377.5,388.3z M405.3,389.2c-0.7-0.8-2.1-3.6-4.2-4.5c-2.9-1.2-5.4,0.1-6.5,3.8
	c-0.4,1.4-2.9,2.1-4.2,3.3c-3.5,3.4-7.2,6.6-10.2,10.5c-0.5,0.7,1.8,5.2,3.5,5.7C392.1,410.7,405.2,400.2,405.3,389.2z M500.6,385.5
	c0.6,3.1,1.1,5.3,1.6,8c5.9-1.2,11.2-2.3,16.5-3.4c0-0.6,0-1.1,0-1.7"/>
<path d="M175.1,397.5c-4.7-0.4-9.4,0.1-14.2,1c-2,0.4-4.1,1.3-6.1,1.1c-2-0.2-3.8-1.4-5.8-2.1c1.5-1.6,2.7-4,4.5-4.7
	c6.3-2.5,13.1-4.1,19.2-6.9c5-2.3,9.6-5.6,14-9c3.9-3,2.3-6.1-1.6-7.4c-11.9-4-23.7-2.4-35.4,1.4c-1.3,0.4-2.8,2.8-2.8,4.2
	c0.4,10.3,1,20.7,1.9,31c0.5,5.3,3.5,9.1,8.3,11.6c1.3,0.6,1.9,2.7,2.8,4c-1.7,0.7-3.3,2-5.1,2.1c-4.1,0.2-6.8-1.2-9-5.5
	c-5.7-10.8-5.6-22.4-6.1-34c-0.1-2.6,0-5.3,0-9.8c-4.4,3.4-7.2,6.1-10.5,7.8c-1.9,1-5.9,1.5-6.8,0.5c-2.3-2.7-1.1-5.6,2.1-7.7
	c17.8-11.6,37-16.4,58.1-13.2c2.6,0.4,5.3,1.4,7.6,2.7c7.5,4.2,8.4,10.2,2.1,16c-4.1,3.9-9,7-13.7,10.6c5.6,1.8,10.9,3.6,16.7,5.5
	c0.5-1.4,0.7-3.6,1.9-5c1.3-1.5,3.7-3.3,5.4-3.1c3.4,0.4,3.9,3.1,2.6,6.1c-0.7,1.5-1.6,3-1.8,4.6c-0.4,3.3-2,7.3,3.2,8.7
	c3.7,0.9,9.2-2.8,9.7-6.6c0.5-3.9,0.2-8,1.4-11.7c0.8-2.5,3.2-6.2,5.1-6.3c4.3-0.2,4.7,3.2,3.8,7.1c-1,4.4-1.3,9-1.6,13.5
	c-0.1,1,0.8,2.1,1.2,3.2c0.7,1.9,2.5,5.1,1.9,5.6c-1.8,1.7-4.5,3.2-6.9,3.3c-6.9,0.2-13.9-0.4-20.8-0.4c-1.7,0-3.4,1.3-5,2.1
	c-12.1,6-31.4,2.4-40.3-7.4c-3.3-3.7-3.2-4.4,1.2-7.1c5.7,7.9,22.3,12.8,31.9,9.2c1.9-0.7,4.6-3.1,4.4-4.3c-0.4-2.3-2.1-5.2-4.1-6.3
	C184.3,399.1,179.7,397.9,175.1,397.5"/>
<path d="M246.6,412.9c-1,1.7-2.3,4-3.7,6.2c-2.2-1.9-5.7-3.4-6.3-5.7c-1.4-5.3-1.4-11-1.8-16c-2-1.6-3.8-3-5.6-4.4
	c2-1.6,3.7-3.8,6-4.6c9.2-3.4,18.7-3.9,28-0.6c2.6,0.9,5.9,4.2,6.1,6.5c0.1,2.4-2.9,5.3-5.2,7.4c-2,1.9-4.9,2.9-7.8,4.5
	c14.4,5.5,20.7,2.6,20.9-9.1c-2.1-2.8-4.7-5.2-4.3-6.1c1-2.2,3.4-5,5.4-5.2c11.7-1.1,23.5-1.7,35.3-2c1.3,0,3.8,2.7,3.7,4
	c-0.2,2.2-1.6,4.7-3.3,6.1c-1.2,1-4.8,1.2-5.4,0.3c-3.8-5.3-8.5-2.4-13.7-2.4c1.4,6.5,3.2,12.5,3.7,18.6c0.2,2.7-1.7,7.4-3.7,8.1
	c-4.2,1.5-5.1-2.3-5.5-6c-0.6-6.8-1.5-13.6-2.2-20.4c-0.8-0.1-1.6-0.3-2.4-0.4c-0.6,1.2-1.9,2.5-1.9,3.6c0.9,16.9-7.8,24-22.1,20.7
	C255.7,414.9,250.5,413.8,246.6,412.9z M241.9,393.7c-1.7,6,1.1,8.1,6.2,6.9c4.4-1,8.5-3.1,12.7-4.7c-0.2-0.7-0.3-1.5-0.5-2.2
	C254.2,393.7,248.1,393.7,241.9,393.7z"/>
<path d="M13.2,395.9c-1.5,1.8-2.8,3.5-4.1,5.1c-0.8-2.2-2.3-4.3-2.4-6.5c-0.1-4.4,0.6-8.9,1-12.9c-2.2-0.5-5.3-0.2-6.6-1.6
	c-2.6-2.6-0.3-5.3,1.3-8c1.8-2.9,1.2-7.6,6.5-7.4c0-3.1,0-6,0-9.7c-2.5,1.6-4.7,2.8-6.6,4.2c-2.4,1.8-4.8,3.5-7.4,0.6
	c-1.8-2-0.1-7.1,2.9-8.4c5.5-2.4,11-4.6,16.7-6.5c12.7-4.2,25.8-6.7,39.2-4.5c11.5,1.9,13.8,4.7,14.1,16c8.1,0.4,16.2,0.7,24.3,1.3
	c3.6,0.2,7.4,0.4,10.8,1.7c2.7,1,5.9,3.1,6.9,5.5c1.6,3.7,0.1,8-3.5,10c-7.7,4.4-15.5,9.1-23.8,11.9c-17.8,6-36.3,9.6-55.2,9.9
	C22.6,396.9,17.8,396.2,13.2,395.9z M28.1,379.8c-3.3,2.9-5.8,5.1-9.1,7.9c1.7,0.3,2.5,0.5,3.2,0.5c15.9,0.6,31.6-1.1,46.9-5.2
	c10.5-2.8,20.6-7.3,30.8-11.2c1.6-0.6,2.8-2.3,4.8-4.2c-3.2-0.9-5.3-1.7-7.3-1.9c-19.4-1.6-38.8-2.7-58,2.4
	c-5.4,1.4-11,2.6-16.5,3.7c-8.4,1.6-8.4,1.5-8.4,10C18.8,381.4,22.4,376.1,28.1,379.8z M60.4,351.7c-15.4-6.8-30.2-3.1-44.9,1.3
	c0.4,3.9,0.7,7.3,1.1,11.4C31.3,359.5,47.1,360.4,60.4,351.7z"/>
<path d="M15.8,421.5c28.7-7.7,57.7-10.2,87.1-9.8c-5.3,4.6-11.8,5.1-18,6.1c-21.4,3.5-43.3,3.9-63.9,11.9c-4.7,1.8-7.3,4.1-6.3,9.5
	c0.8,4.1,1.2,8.2,1.4,12.3c0.1,1.6-0.9,3.2-1.4,4.7c-1.6-1.1-4.4-1.8-4.7-3.2c-1.1-4.1-1.5-8.4-1.7-12.7c-0.3-6.6-0.1-13.2-0.1-18.5
	c-2-2.9-4.8-5.2-4.6-7.1c0.3-2.2,3-5.4,5.1-5.9c14.3-3.4,28.6-7.1,43.1-9.1c15.3-2.1,30.8-2.6,46.2-3.5c1.9-0.1,3.9,1.4,5.8,2.1
	c-1.8,1.5-3.4,4.2-5.4,4.5c-9,1.3-18.2,1.7-27.2,3c-16.2,2.2-32.5,4.5-48.6,7.5C16.4,414.4,16.2,415.6,15.8,421.5z"/>
<g>
	<path d="M407.4,368.1h-1.5c0.1-1.5,0.2-3.1,0.2-4.8c0-0.9-0.2-1.5-0.5-1.9c-0.3-0.3-0.8-0.5-1.4-0.5c-0.9,0-1.6,0.3-2.4,0.9
		c0,3.1,0,5.2,0.1,6.3h-1.5c0.1-1.5,0.1-3.6,0.1-6.3c0-2.4-0.1-4.3-0.2-5.6l1.6-0.1c0,1.7-0.1,3.3-0.1,4.8h0.1
		c0.9-0.7,1.8-1.1,2.8-1.1c0.9,0,1.6,0.2,2.1,0.6s0.8,1.2,0.8,2.2c0,0.1,0,0.3,0,0.6c0,0.3,0,0.6,0,0.8
		C407.3,364.8,407.3,366.2,407.4,368.1z"/>
	<path d="M416,368.1l-1.3,0.1c-0.1-0.3-0.1-0.5-0.1-0.8h-0.1c-0.7,0.6-1.6,1-2.9,1c-0.7,0-1.2-0.2-1.7-0.6c-0.5-0.4-0.7-0.9-0.7-1.6
		c0-0.9,0.4-1.6,1.1-2.1s2.1-0.8,4.1-0.8c0-0.1,0-0.3,0-0.5c0-0.7-0.2-1.2-0.6-1.4c-0.4-0.2-0.9-0.3-1.7-0.3c-0.9,0-1.8,0.1-2.6,0.3
		l0.1-1.2c0.9-0.2,1.8-0.4,2.9-0.4c1,0,1.8,0.2,2.3,0.6s0.8,1.1,0.8,2.1c0,0.3,0,0.8,0,1.5s0,1.2,0,1.4
		C415.7,366.3,415.8,367.3,416,368.1z M414.5,366.4c0-0.9,0-1.6,0-2.3c-1.1,0-1.9,0.1-2.4,0.2c-0.9,0.3-1.4,0.8-1.4,1.6
		c0,0.8,0.5,1.2,1.6,1.2C413.2,367.1,413.9,366.9,414.5,366.4z"/>
	<path d="M425.3,368.1h-1.5c0.1-1.5,0.2-3.1,0.2-4.9c0-0.9-0.2-1.5-0.5-1.8c-0.4-0.3-0.9-0.5-1.5-0.5c-0.8,0-1.5,0.3-2.2,0.9
		c0,1.9,0,4,0,6.3h-1.5c0.1-1.9,0.1-3.3,0.1-4.2c0-1.3-0.1-2.6-0.4-3.9l1.5-0.2l0.2,1h0.1c0.8-0.8,1.7-1.1,2.7-1.1
		c0.9,0,1.7,0.2,2.2,0.6c0.5,0.4,0.8,1.2,0.8,2.2c0,0.1,0,0.3,0,0.6c0,0.3,0,0.5,0,0.6C425.3,364.8,425.3,366.2,425.3,368.1z"/>
	<path d="M434.9,368.1h-1.3c0-0.2-0.1-0.5-0.1-0.8h-0.1c-0.6,0.6-1.5,1-2.7,1c-1.1,0-1.9-0.4-2.6-1.2c-0.6-0.8-1-1.7-1-2.8
		c0-1.3,0.4-2.3,1.1-3.2s1.7-1.4,3-1.4c0.9,0,1.6,0.2,2,0.6h0.1c0-1.4,0-2.8-0.1-4.1l1.6-0.1c-0.1,1.4-0.2,3.3-0.2,5.7
		C434.7,364.1,434.8,366.2,434.9,368.1z M433.5,366.4c0-1.8,0-3.5-0.1-5.1c-0.5-0.4-1-0.6-1.7-0.6c-1,0-1.7,0.3-2.2,1
		c-0.5,0.7-0.7,1.4-0.7,2.4c0,0.9,0.2,1.6,0.7,2.2s1.1,0.9,1.9,0.9C432.4,367.1,433.1,366.9,433.5,366.4z"/>
	<path d="M447.9,363.1c0-0.9-0.2-1.5-0.5-1.8c-0.3-0.3-0.8-0.4-1.6-0.4c-0.6,0-1.2,0.3-1.9,0.9c0,0.7,0,1.4,0,2c0,0.9,0,2.4,0.1,4.2
		h-1.5c0.1-1.6,0.2-3.3,0.2-4.9c0-0.9-0.2-1.5-0.5-1.8c-0.3-0.3-0.8-0.4-1.5-0.4s-1.4,0.3-2,0.9c0,1.8,0,3.9,0,6.3h-1.5
		c0.1-1.9,0.2-3.3,0.2-4.2c0-1.3-0.1-2.6-0.4-3.9l1.5-0.2l0.2,1h0.1c0.7-0.8,1.6-1.1,2.5-1.1c1.3,0,2.2,0.4,2.6,1.1h0.1
		c0.9-0.8,1.7-1.1,2.5-1.1c1,0,1.7,0.2,2.2,0.6c0.5,0.4,0.7,1.2,0.7,2.2c0,0.1,0,0.3,0,0.6c0,0.3,0,0.5,0,0.6c0,0.9,0,2.4,0,4.2
		h-1.5C447.8,366.6,447.9,364.9,447.9,363.1z"/>
	<path d="M457.8,368.1l-1.3,0.1c-0.1-0.3-0.1-0.5-0.1-0.8h-0.1c-0.7,0.6-1.6,1-2.9,1c-0.7,0-1.2-0.2-1.7-0.6
		c-0.5-0.4-0.7-0.9-0.7-1.6c0-0.9,0.4-1.6,1.1-2.1s2.1-0.8,4.1-0.8c0-0.1,0-0.3,0-0.5c0-0.7-0.2-1.2-0.6-1.4
		c-0.4-0.2-0.9-0.3-1.7-0.3c-0.9,0-1.8,0.1-2.6,0.3l0.1-1.2c0.9-0.2,1.8-0.4,2.9-0.4c1,0,1.8,0.2,2.3,0.6s0.8,1.1,0.8,2.1
		c0,0.3,0,0.8,0,1.5s0,1.2,0,1.4C457.6,366.3,457.7,367.3,457.8,368.1z M456.3,366.4c0-0.9,0-1.6,0-2.3c-1.1,0-1.9,0.1-2.4,0.2
		c-0.9,0.3-1.4,0.8-1.4,1.6c0,0.8,0.5,1.2,1.6,1.2C455,367.1,455.8,366.9,456.3,366.4z"/>
	<path d="M467.3,368.1H466c0-0.2-0.1-0.5-0.1-0.8h-0.1c-0.6,0.6-1.5,1-2.7,1c-1.1,0-1.9-0.4-2.6-1.2c-0.6-0.8-1-1.7-1-2.8
		c0-1.3,0.4-2.3,1.1-3.2s1.7-1.4,3-1.4c0.9,0,1.6,0.2,2,0.6h0.1c0-1.4,0-2.8-0.1-4.1l1.6-0.1c-0.1,1.4-0.2,3.3-0.2,5.7
		C467.1,364.1,467.2,366.2,467.3,368.1z M466,366.4c0-1.8,0-3.5-0.1-5.1c-0.5-0.4-1-0.6-1.7-0.6c-1,0-1.7,0.3-2.2,1
		c-0.5,0.6-0.7,1.4-0.7,2.4c0,0.9,0.2,1.6,0.7,2.2s1.1,0.9,1.9,0.9C464.8,367.1,465.5,366.9,466,366.4z"/>
	<path d="M476.6,363.1c0,0.2,0,0.6,0,1l-5.8,0.1c0.1,0.8,0.4,1.5,1,2.1c0.6,0.6,1.4,0.8,2.3,0.8s1.7-0.1,2.4-0.3l-0.1,1.2
		c-0.6,0.2-1.4,0.3-2.4,0.3c-1.5,0-2.6-0.4-3.4-1.2c-0.8-0.8-1.2-1.8-1.2-2.9c0-1.2,0.4-2.3,1.1-3.2c0.7-0.9,1.7-1.3,2.8-1.3
		c1.1,0,1.9,0.3,2.5,1C476.3,361.2,476.6,362.1,476.6,363.1z M475.1,363.1c0-1.6-0.7-2.4-2-2.4c-1.4,0-2.2,0.8-2.4,2.5L475.1,363.1z
		"/>
	<path d="M489.6,368.1h-2c0-0.2-0.5-1-1.6-2.3c-1.1-1.4-1.8-2-2.1-2h-0.1c0,1.2,0,2.6,0.1,4.3h-1.5c0.1-2.1,0.1-4.2,0.1-6.3
		c0-2.2-0.1-4.1-0.2-5.6l1.6-0.1c-0.1,1.2-0.1,3.6-0.1,7.1h0.1c0.2,0,0.8-0.5,1.8-1.4c1-1,1.5-1.5,1.5-1.7h1.9
		c0,0.2-0.4,0.7-1.3,1.4c-0.8,0.7-1.6,1.3-2.3,1.8v0.1c0.7,0.5,1.6,1.4,2.7,2.7C489.1,367.2,489.6,367.9,489.6,368.1z"/>
	<path d="M498,368.1h-1.5c0.1-1.5,0.2-3.1,0.2-4.9c0-0.9-0.2-1.5-0.5-1.8c-0.4-0.3-0.9-0.5-1.5-0.5c-0.8,0-1.5,0.3-2.2,0.9
		c0,1.9,0,4,0,6.3H491c0.1-1.9,0.1-3.3,0.1-4.2c0-1.3-0.1-2.6-0.4-3.9l1.5-0.2l0.2,1h0.1c0.8-0.8,1.7-1.1,2.7-1.1
		c0.9,0,1.7,0.2,2.2,0.6c0.5,0.4,0.8,1.2,0.8,2.2c0,0.1,0,0.3,0,0.6c0,0.3,0,0.5,0,0.6C498,364.8,498,366.2,498,368.1z"/>
	<path d="M501.8,368.1h-1.5c0.1-1.1,0.1-2.4,0.1-3.9c0-1.6-0.1-3-0.3-4.1l1.7-0.2c-0.1,1.2-0.1,2.6-0.1,4.4
		C501.7,365.5,501.7,366.8,501.8,368.1z M502.1,357.4c0,0.3-0.1,0.5-0.3,0.8c-0.2,0.2-0.5,0.3-0.8,0.3s-0.5-0.1-0.7-0.3
		c-0.2-0.2-0.2-0.4-0.2-0.7s0.1-0.5,0.3-0.7c0.2-0.2,0.5-0.3,0.8-0.3s0.5,0.1,0.7,0.3C502.1,357,502.1,357.2,502.1,357.4z"/>
	<path d="M510.9,360c0,0.3-0.6,1.6-1.7,4c-1.1,2.4-1.7,3.8-1.7,4.1h-1.1c0-0.4-0.5-1.8-1.5-4.2s-1.5-3.7-1.5-3.9h1.7
		c0,0.3,0.4,1.4,1.1,3.2c0.7,1.9,1.1,3,1.1,3.2h0.1c0-0.3,0.3-1.3,1.1-3.1c0.7-1.8,1-2.9,1-3.4h1.4V360z"/>
	<path d="M519.4,363.1c0,0.2,0,0.6,0,1l-5.8,0.1c0.1,0.8,0.4,1.5,1,2.1c0.6,0.6,1.4,0.8,2.3,0.8c0.9,0,1.7-0.1,2.4-0.3l-0.1,1.2
		c-0.6,0.2-1.4,0.3-2.4,0.3c-1.5,0-2.6-0.4-3.4-1.2c-0.8-0.8-1.2-1.8-1.2-2.9c0-1.2,0.4-2.3,1.1-3.2c0.7-0.9,1.7-1.3,2.8-1.3
		s1.9,0.3,2.5,1C519.1,361.2,519.4,362.1,519.4,363.1z M518,363.1c0-1.6-0.7-2.4-2-2.4c-1.4,0-2.2,0.8-2.4,2.5L518,363.1z"/>
	<path d="M526.8,365.8c0,1.7-1.1,2.5-3.2,2.5c-0.9,0-1.8-0.1-2.6-0.3l0.3-1.3c0.7,0.3,1.5,0.4,2.4,0.4c1.2,0,1.9-0.4,1.9-1.1
		c0-0.3-0.1-0.6-0.4-0.8c-0.3-0.2-0.7-0.4-1.4-0.7c-0.8-0.3-1.4-0.6-1.8-0.9c-0.5-0.4-0.8-1-0.8-1.6s0.2-1.2,0.7-1.7
		s1.2-0.7,2.2-0.7s1.8,0.1,2.3,0.2l-0.3,1.2c-0.6-0.2-1.3-0.4-2.1-0.4c-1.1,0-1.6,0.3-1.6,0.9c0,0.3,0.1,0.6,0.4,0.8
		c0.2,0.2,0.7,0.4,1.4,0.7c0.8,0.3,1.3,0.6,1.7,0.9C526.5,364.6,526.8,365.1,526.8,365.8z"/>
</g>
</svg>
