<?xml version="1.0" encoding="utf-8"?>
<!-- Generator: Adobe Illustrator 19.0.0, SVG Export Plug-In . SVG Version: 6.00 Build 0)  -->
<svg version="1.1" id="Слой_1" xmlns="http://www.w3.org/2000/svg" xmlns:xlink="http://www.w3.org/1999/xlink" x="0px" y="0px"
	 viewBox="0 0 194 135.8" style="enable-background:new 0 0 194 135.8;" xml:space="preserve">
<style type="text/css">
	.st0{fill:#FF0000;}
</style>
<path class="st0" d="M194,65.2c0,1,0,2.1,0,3.1c-1,2.3-2,4.5-4,6.1c-2.3,1.9-4.6,3.8-6.9,5.7c-6.4,5.3-12.9,10.6-19.3,16
	c-6,5-12.1,10-18.1,15c-7.9,6.5-15.7,13-23.6,19.5c-2.2,1.8-4.4,3.6-6.8,5.1c-3.2,2-6.5,0.6-7.6-3c-0.4-1.3-0.5-2.7-0.5-4.1
	c0-9.1,0-18.3,0-27.4c0-0.6,0-1.1,0-1.7c-0.6,0-1-0.1-1.4-0.1c-32.8,0-65.7,0-98.5,0c-3.3,0-5.6-1.6-6.6-4.8C0.4,94,0.2,93.2,0,92.5
	C0,75.8,0,59,0,42.3c1.4-5,5-6.1,9.8-6.1c31,0.1,62.1,0,93.1,0c0.7,0,1.4,0,2.3,0c0-0.8,0-1.4,0-1.9c0-8.2,0-16.3,0-24.5
	c0-1.8,0.1-3.7,0.6-5.5c0.9-3.7,4.4-5.3,7.9-3.8c1.3,0.6,2.5,1.3,3.6,2.2c3.8,2.9,7.5,5.9,11.2,8.7c9,6.9,18,13.6,26.9,20.5
	c10.4,8.1,20.8,16.2,31.2,24.4C189.6,58.8,192.8,61.2,194,65.2z"/>
</svg>
