<?xml version="1.0" encoding="utf-8"?>
<!-- Generator: Adobe Illustrator 19.0.0, SVG Export Plug-In . SVG Version: 6.00 Build 0)  -->
<svg version="1.1" id="Слой_1" xmlns="http://www.w3.org/2000/svg" xmlns:xlink="http://www.w3.org/1999/xlink" x="0px" y="0px"
	 viewBox="0 0 250 203" style="enable-background:new 0 0 250 203;" xml:space="preserve">
<style type="text/css">
	.st0{fill:#FFFFFF;}
</style>
<path class="st0" d="M250,38c0,4,0,8,0,12c-0.4,0.3-1,0.5-1.1,0.9c-3.9,12.8-7.5,25.7-11.6,38.5c-3.8,12.2-8,24.2-12.1,36.3
	c-3,8.9-3.5,9.2-12.5,9.2c-36.5,0-72.9,0-109.4,0c-1.8,0-3.6,0-5.9,0c1,2.1,2.2,3.7,2.4,5.3c0.6,5.9,4,7.3,9.5,7.2
	c31.8-0.2,63.6-0.2,95.4,0c8,0.1,14.4,3.8,19.5,10.5c4.4,5.7,5.1,11.8,5.1,18.5c0,9.5-3.9,16.4-11.8,21.1c-3.6,2.2-7.6,3.6-11.4,5.4
	c-2.3,0-4.7,0-7,0c-0.8-0.4-1.6-1.2-2.5-1.3c-11.7-1-22.1-13.8-21.5-23.6c0.2-3.6,0-7.2,0-10.8c-18,0-35.3,0-52.8,0
	c0,1.8-0.2,3.1,0,4.4c1.9,13.2-5.2,25.3-18.6,29.6c-1.6,0.5-3.1,1.1-4.6,1.7c-2.3,0-4.7,0-7,0c-1-0.4-2-1.1-3-1.3
	c-9.6-1.7-20-10.9-20.8-19.9c-0.7-8.2-1.9-17,5.1-23.8c2.8-2.7,5.4-5.5,8.3-8.5C65.3,106.9,49,64.1,32.5,20.9
	c-6.7,0-13.5-0.1-20.3,0C7,21,3.1,18.9,0,15C0,10,0,5,0,0c14,0,28,0,42,0c2.4,2.6,5.4,4.9,6.9,8c3.1,6.4,6,13,7.8,19.9
	c1.2,4.6,3.2,5.5,7.5,5.5c57.8-0.1,115.6,0,173.4-0.2C242.5,33.2,246.6,34.4,250,38z M66.5,53.2c3.1,8.5,5.9,16.6,9.2,24.5
	c0.6,1.4,3.1,2.8,4.8,2.9c9.5,0.3,19,0.1,28.5,0.1c2.9,0,5.8,0,9.5,0c-0.7-9.7-1.4-18.5-2.1-27.5C99.8,53.2,83.4,53.2,66.5,53.2z
	 M178.7,80.4c13.9,0,27,0,40.1,0c2.8-9.1,5.6-18.1,8.4-27.1c-15.6,0-31,0-46.4,0C180.1,62.4,179.4,71.2,178.7,80.4z M127.4,53.1
	c0.7,9.3,1.3,18.1,1.9,27.2c12.9,0,25.6,0,38.6,0c0.6-9.1,1.2-18,1.9-27.2C155.3,53.1,142,53.1,127.4,53.1z M215.1,92.1
	c-12.7,0-24.8,0-37.1,0c-0.7,7.7-1.4,15.1-2.1,22.9c11.2,0,21.4,0,32,0C210.2,107.5,212.6,99.9,215.1,92.1z M82.2,92.1
	c-0.1,0.8-0.4,1.3-0.2,1.7c2.4,6.6,4.7,13.1,7.2,19.6c0.3,0.9,1.8,1.8,2.8,1.8c9.4,0.1,18.9,0.1,29.3,0.1
	c-0.7-8.1-1.4-15.5-2.1-23.2C106.7,92.1,94.5,92.1,82.2,92.1z M132.2,115c11.2,0,21.9,0,32.7,0c0.7-7.8,1.4-15.2,2.1-22.8
	c-12.7,0-24.4,0-36.8,0C130.9,99.9,131.5,107.3,132.2,115z M202,166.9c-4.1,0-7.7,3.8-7.6,7.9c0.1,4.7,3,7.4,7.8,7.3
	c3.9-0.1,7.5-3.7,7.5-7.5C209.8,170.5,206.1,166.8,202,166.9z M95.3,182.1c4.8-0.1,7.5-2.9,7.5-7.7c0-4.1-3.7-7.6-8-7.5
	c-3.8,0.1-7.3,3.8-7.4,7.6C87.5,178.6,91.2,182.2,95.3,182.1z"/>
</svg>
