<?xml version="1.0" encoding="utf-8"?>
<!-- Generator: Adobe Illustrator 19.0.0, SVG Export Plug-In . SVG Version: 6.00 Build 0)  -->
<svg version="1.1" id="Слой_1" xmlns="http://www.w3.org/2000/svg" xmlns:xlink="http://www.w3.org/1999/xlink" x="0px" y="0px"
	 viewBox="0 0 175.1 175.7" style="enable-background:new 0 0 175.1 175.7;" xml:space="preserve">
<style type="text/css">
	.st0{fill:#FFFFFF;}
</style>
<path class="st0" d="M25.9,175.7c-2.3-1.5-4.3-2.4-5.8-3.8c-5.6-5.4-11.2-11-16.7-16.6c-4.5-4.6-4.5-7.8,0-12.3
	c16.2-16.3,32.5-32.5,48.8-48.8c5.4-5.4,5.4-8.2-0.1-13.8c-16-16-32.1-32-48.1-48.1c-5.3-5.3-5.3-8.2-0.1-13.4
	C9.1,13.8,14.3,8.7,19.5,3.5c4.8-4.7,7.9-4.7,12.7,0.1c16.2,16.1,32.3,32.3,48.4,48.4c5.6,5.6,8.2,5.6,13.7,0.1
	c16-16,32.1-32,48.1-48c5.5-5.5,8.2-5.4,13.8,0.1c5.1,5,10.2,10.1,15.2,15.2c4.8,4.8,4.8,7.9,0,12.7c-16,16-32.1,32-48.1,48.1
	c-6.2,6.2-6.1,8.5,0.1,14.8c15.8,15.8,31.6,31.6,47.4,47.4c5.5,5.5,5.5,8.4,0.1,13.8c-5.1,5.1-10.1,10.1-15.2,15.2
	c-5,4.9-8,4.9-13-0.2c-16-16-32.1-32.1-48.1-48.1c-5.7-5.7-8.4-5.7-14.1,0c-16,16-32.1,32.1-48.2,48
	C30.5,172.8,28.2,174.1,25.9,175.7z"/>
</svg>
