<?xml version="1.0" encoding="utf-8"?>
<!-- Generator: Adobe Illustrator 19.0.0, SVG Export Plug-In . SVG Version: 6.00 Build 0)  -->
<svg version="1.1" id="Слой_1" xmlns="http://www.w3.org/2000/svg" xmlns:xlink="http://www.w3.org/1999/xlink" x="0px" y="0px"
	 viewBox="0 0 500 343" style="enable-background:new 0 0 500 343;" xml:space="preserve">
<style type="text/css">
	.st0{fill:#35201B;}
</style>
<path class="st0" d="M242,0c5,0,10,0,15,0c0.7,0.4,1.4,1,2.1,1.1c23.8,3.5,40.9,17,53,36.9c17.2,28.1,18.7,58.1,8.4,88.8
	c-5.3,15.8-14.6,29.1-27.9,39.3c-1.9,1.5-3.9,2.8-6.3,4.6c1.3,0.7,2,1.1,2.7,1.5c32.7,15.7,65.2,31.6,98.1,47
	c10.4,4.9,14.9,12.1,14.8,23.4c-0.3,25.6-0.3,51.3,0,76.9c0.1,10.1-2.7,18.3-11.9,23.4c-93.7,0-187.3,0-281,0
	c-7.2-4.5-11.8-10.7-11.8-19.4c-0.1-27.8-0.1-55.6,0-83.5c0-9.1,4.3-15.9,12.6-19.8c29.1-13.5,58.3-26.9,87.4-40.4
	c5.5-2.5,11-5.2,17.3-8.2c-12.8-7.8-21.9-17.7-28.9-29.7c-9.3-15.9-14.1-33.2-14-51.3c0.1-17.5,4.8-34.3,13.6-49.5
	c11.4-19.6,26.9-34.1,49.8-39.1C237.4,1.6,239.7,0.7,242,0z M500,224c-1.5-5.7-4.4-10.2-10-12.9c-23.6-11.1-47.2-22.3-70.8-33.5
	c-4-1.9-7.8-4-12-6.2c1.1-1.2,1.6-1.9,2.2-2.3c13.7-10,22.6-23.4,27-39.6c8.1-29.3,2.7-55.7-18.3-78.1
	c-17.6-18.8-44.2-22.9-66.9-10.9c-3.7,2-6.7,3.6-4.6,9.4c8.8,24.1,9.6,48.9,2.7,73.5c-3.5,12.4-9.2,24.1-14.5,37.7
	c5.2,3.6,11.1,8.7,17.9,12.2c16.7,8.6,33.9,16.2,50.8,24.5c15.7,7.8,24.1,21.2,24.8,38.3c0.9,22.6,0.4,45.3,0.5,68
	c0,1.9,0.2,3.8,0.3,6c18,0,35.3,0,52.6,0c12.3,0,14.5-1.5,18.4-13.1C500,272.7,500,248.3,500,224z M0,297c0.4,0.4,1.1,0.7,1.3,1.2
	c3.7,10.4,5.8,12,16.7,12c15.7,0,31.3,0,47,0c1.8,0,3.5-0.2,5.7-0.3c0-2.4,0-4.4,0-6.4c0-21.7-0.3-43.3,0.1-65
	c0.3-18.3,8.5-32.3,25.2-40.6c15.2-7.5,30.7-14.4,45.8-22c7.1-3.5,13.7-8.1,20.4-12.3c3-1.9,3.3-4,1.3-7.4
	C142.7,121.6,139.8,85,153.1,47c1-2.8,0.6-4.1-1.9-5.6c-19.4-11.8-45.7-9.8-63.1,4.8c-29.2,24.5-36.3,71.2-15.2,102.8
	c5.7,8.5,13.5,15.7,20.5,23.7c-0.7,0.4-2.6,1.4-4.5,2.2c-23.4,10.8-46.8,21.6-70.3,32.3C10.4,211.1,2,214.6,0,225C0,249,0,273,0,297
	z"/>
</svg>
