<?xml version="1.0" encoding="utf-8"?>
<!-- Generator: Adobe Illustrator 19.0.0, SVG Export Plug-In . SVG Version: 6.00 Build 0)  -->
<svg version="1.1" id="Слой_1" xmlns="http://www.w3.org/2000/svg" xmlns:xlink="http://www.w3.org/1999/xlink" x="0px" y="0px"
	 viewBox="0 0 400.4 400" style="enable-background:new 0 0 400.4 400;" xml:space="preserve">
<style type="text/css">
	.st0{fill:#35201B;}
</style>
<path class="st0" d="M400.4,197c0,2,0,4,0,6c-0.6,0.5-1.2,1-1.7,1.6c-5,6.8-9.8,13.8-15.1,20.4c-2.3,2.9-2.5,5-1.1,8.4
	c3.6,8.5,6.7,17.1,9.7,25.8c0.4,1.3-0.9,4-2.2,4.9c-6.8,5-14,9.6-20.8,14.6c-4.3,3.2-7.5,7-6.6,13.4c1.2,9.1,1.6,18.2,2.4,27.5
	c-2.7,0.4-4.4,0.4-5.9,0.8c-7.2,2-14.4,3.8-21.5,6.2c-3.5,1.2-7.9,1.5-9.2,6.3c-2.8,10.2-5.7,20.4-8.6,30.9c-5.8,0-11.6,0.1-17.4,0
	c-3.8-0.1-7.6,0-11.2-0.9c-3.3-0.8-5.9-1.1-8,1.8c-4.8,6.5-9.1,13.4-14.3,19.7c-2.5,3-3.7,9.2-9.4,7.3c-8.7-2.7-17.2-6-25.5-9.6
	c-3.6-1.5-6.2-1.6-8.8,1.5c-0.8,0.9-2.2,1.4-3.2,2.2c-6.2,4.7-12.3,9.4-18.5,14.1c-2,0-4,0-6,0c-0.2-0.4-0.3-1-0.6-1.3
	c-6.8-4.8-14-9.1-20.2-14.5c-3.9-3.3-6.8-3.3-11-1.5c-7.9,3.4-16,6.3-24.2,9.1c-1.3,0.5-3.9,0.2-4.5-0.7c-5-6.8-9.9-13.7-14.3-20.8
	c-4.6-7.4-5.7-8.2-14.4-6.4c-0.5,0.1-1,0.1-1.5,0.1c-7.2,0-14.3,0.2-21.5-0.1c-1.6-0.1-4.2-1.4-4.6-2.7c-2.5-7.7-4.2-15.5-6.6-23.2
	c-1.4-4.5-2.2-9.2-8.7-10.4c-8.2-1.6-16-5.1-24.2-7.1c-3.9-0.9-4.8-2.8-4.6-6.2c0.6-9,1.2-18,1.5-27.1c0.1-1.4-0.4-3.5-1.4-4.2
	c-8.5-6.3-17-12.7-25.9-18.4c-2.8-1.8-2.7-3.7-2-5.7c1.9-6,3.7-12.1,6.6-17.7c3.6-6.9,5.8-12.9-0.5-19.7
	c-5.3-5.6-9.5-12.2-14.3-18.4c0-2,0-4,0-6c5.2-6.6,10.6-13.1,15.5-19.9c2.2-3.1,4.7-6,2.1-11.1c-3.8-7.6-6.2-15.9-8.9-24
	c-0.6-1.7-0.4-5,0.8-5.8c6.9-5.2,14.1-10,21.4-14.6c5-3.1,7.8-6.7,6.9-13.1c-1.1-7.8-1.4-15.7-1.6-23.5c0-1.7,1.8-4.4,3.3-4.9
	c9.6-3,19.4-5.3,29-8.2c1.4-0.4,2.5-2.2,3.3-3.7c0.7-1.3,0.8-3,1.3-4.6c1.7-6.4,3.2-12.8,5.2-19.1c0.9-2.9,2.4-7.5,4.4-7.9
	c5.3-1.1,10.9-0.4,16.4-0.2c5.4,0.2,10.8,0.9,16.2,1.1c1,0,2.5-1,3.2-2c5.9-8.4,11.5-16.9,17.5-25.2c0.9-1.3,3.6-2.5,5-2.1
	c7.1,2.3,13.9,5.4,21,7.8c3.6,1.2,8.6,3.4,10.9,2c8.5-5.3,16.2-11.9,24.1-18c2,0,4,0,6,0c8,6.1,15.9,12.4,24,18.3
	c1.2,0.9,3.7,0.7,5.2,0.1c8.7-3.2,17.3-6.7,25.9-9.9c2.5-0.9,4.5-1.2,6.4,2.1c4.2,7.1,9,13.9,14.1,20.4c2.6,3.3,4.6,7.7,10.7,6.8
	c8.4-1.2,17.1-1.2,25.6-1.8c2.8-0.2,4.5,0.7,5.3,3.9c2.4,9.2,5,18.3,7.9,27.4c0.6,1.8,2.1,4.1,3.7,4.5c9.6,2.9,19.4,5.4,29,8.1
	c1.1,0.3,2.8,1.6,2.8,2.4c0,7.9-0.4,15.9-0.4,23.8c0,3.7-1.2,9.1,0.8,10.8c8,6.9,16.8,12.9,25.7,18.6c2.8,1.8,2.7,3.8,2,5.7
	c-3.2,8.8-6.9,17.4-10,26.2c-0.7,2,0.5,4.8,1.3,7.1c0.5,1.5,1.8,2.7,2.8,3.9C391,184.7,395.7,190.8,400.4,197z M84.7,181.4
	c8.8-1.1,16.8,1.6,25.3,0.3c6.4-1,12.6-1.7,18.3-4.9c9.1-5.1,14.3-19.1,4.5-28.2c-2.6-2.4-5.7-4.2-10.6-7.7c2-1.1,3.6-2.2,5.5-3
	c6.4-2.7,7.7-8.1,7.2-14.2c-0.4-5.6-3.8-9.1-8.6-11.7c-14-7.5-28.4-4.3-43.7-2.9C83.3,133.5,84,157,84.7,181.4z M128.7,209.8
	c0,24.4,0,48.4,0,72.7c5.3,0,10.3,0,15.8,0c0-9.9,0-19.3,0-29.2c2.9,0,5.4,0,7.9,0c4.7,0.1,9,3.1,10.3,7.5c1.7,6,3.1,12.1,4.9,18.1
	c0.5,1.5,1.9,3.7,3.1,3.8c4.1,0.5,8.4,0.2,13.3,0.2c-5.1-12.8-4.6-26.7-16.3-35.2c0.9-0.8,1.3-1.3,1.9-1.6
	c8.2-4.8,13.8-11.2,10.6-21.3c-1.2-3.8-3.2-8.1-6.2-10.5c-6.9-5.7-15.9-5.8-24.2-6.2C142.9,207.6,136,209.1,128.7,209.8z M168,150
	c9.4,0,18.4,0,27.4,0c0-3.9,0-7.2,0-11.1c-9.3,0-18.3,0-27.4,0c0-6.3,0-12,0-18.4c9.8,0,19.4,0,29,0c0-4.6,0-8.4,0-12.3
	c-15.2,0-29.9,0-44.9,0c0,24.4,0,48.5,0,72.9c15.6,0,31,0,46.4,0c0-3.7,0-7.1,0-11c-10.4,0-20.3,0-30.6,0
	C168,163.3,168,157.1,168,150z M78.7,254.8c3.8,0,6.9-0.2,10.1,0c9.3,0.6,16.5-3,22.5-10c10.3-11.8,3.4-29.2-8.8-33.9
	c-12.3-4.7-25-3.9-37.3-1.1c-0.8,7.1-2.1,14.1-2.3,21c-0.3,16.3-0.1,32.6,0,48.9c0,1,1.4,2.8,2.3,2.9c4.4,0.3,8.8,0.1,13.5,0.1
	C78.7,273.3,78.7,264.5,78.7,254.8z M310.4,270.3c0-7.2,0-13.5,0-20.4c8.9,0,17.3,0,25.8,0c0-3.8,0-7,0-11c-8.8,0-17.3,0-25.9,0
	c0-6.5,0-12.2,0-18.8c9.9,0,19.6,0,29.3,0c-0.6-2.9-1.4-5-1.4-7c0.1-3.2-1.3-4-4.2-3.9c-5.7,0.2-11.3,0-17,0c-7.4,0-14.9,0-22.6,0
	c0,24.8,0,49,0,73.7c14.9,0,29.6,0.1,44.2-0.1c0.9,0,2.6-2.1,2.5-3.1c-0.4-3-1.4-5.9-2.3-9.4C329.6,270.3,320.2,270.3,310.4,270.3z
	 M209.2,178.8c16.5,3.9,14.7,5.4,30,2.6c11.8-2.2,24.5-16.3,16.4-30.6c-4.4-7.8-12.7-9.8-19.8-13.6c-3.1-1.7-6.4-3.3-8.9-5.7
	c-3.5-3.4-1.5-9.6,2.9-11.3c7.5-2.8,14.7-1.4,22.1,1.4c0.7-4.1,1.4-7.9,2.2-12.3c-12.7-1.9-24.5-4.5-35.4,3.1
	c-5.5,3.9-9.2,9.2-8.9,16.1c0.3,7.6,4.7,13.2,11.2,16.8c5.4,3,11.3,5.1,16.8,7.8c4.6,2.2,6.4,5.8,4.5,10.7c-1.3,3.5-3.9,6.6-8.6,6.2
	c-7.2-0.6-14.5-1.2-22.3-1.9C210.8,171.1,210,175,209.2,178.8z M278.2,221.7c0.4-1.7,0.6-3,1.1-4.2c2.2-5.3,1.6-7.6-4.1-8.2
	c-7.3-0.8-15-0.9-22.3,0.1c-10.5,1.4-18.3,7.8-23.5,16.9c-5.5,9.5-6.9,19.3-4.4,30.5c2.2,9.9,8.3,16.4,15.8,21.1
	c11.4,7.2,24.4,6.5,37.2,3.4c1-0.2,2-2.6,1.9-3.9c-0.2-2.2-1.2-4.3-2.1-7.2c-6,0-12.4,0.1-18.8-0.1c-1.9,0-3.9-0.4-5.7-1.1
	c-15-6.1-18.6-29.7-6.9-42.1C252.5,220.4,268.2,217.7,278.2,221.7z M302.1,181c0-20.2,0-40.1,0-60.6c7,0,13.4,0,19.9,0
	c0-4.5,0-8.4,0-12.3c-18.8,0-37.2,0-55.7,0c0,4.2,0,8.1,0,12.5c6.8,0,13.2,0,20.1,0c0,20.5,0,40.3,0,60.5
	C291.8,181,296.7,181,302.1,181z M209.5,282.6c0-24.5,0-48.8,0-72.9c-4.8,0-9.2,0-13.6,0c0,24.5,0,48.5,0,72.9
	C200.5,282.6,204.9,282.6,209.5,282.6z M99.4,172.5c5.9-0.8,11.5-0.8,16.3-2.7c2.8-1.1,5.3-5.2,6.2-8.4c1.1-3.8,0.4-7.7-4.1-10.4
	c-6-3.6-12.1-1.9-18.4-2.3C99.4,156.8,99.4,164.2,99.4,172.5z M99.1,120.4C99,124,99,127.7,99,131.3c0,7.9,1,8.6,8.6,6.3
	c1.4-0.4,3-0.2,4.4-0.4c5.5-0.7,8.9-4.9,8.6-10.7c-0.3-5.1-3.4-7.7-9.3-7.8c-3.8,0-7.6,0-11.4,0C99.6,119.5,99.1,119.9,99.1,120.4z
	 M165.1,235.5c1.2-3.1,1-7.9-0.6-10.7c-3.6-6.1-11.6-7.6-20-5c0,7.1,0,14.2,0,21.6C155,243.2,162.7,241.4,165.1,235.5z M89.4,243.7
	c10.3-0.9,14.9-9.6,9.9-18.9c-2.3-4.2-14.3-7.9-18.5-5.4c-1.1,0.6-2,2.4-2,3.6c-0.2,7.1-0.1,14.3-0.1,22.7
	C82.8,244.9,86.1,244,89.4,243.7z"/>
</svg>
