<?xml version="1.0" encoding="utf-8"?>
<!-- Generator: Adobe Illustrator 19.0.0, SVG Export Plug-In . SVG Version: 6.00 Build 0)  -->
<svg version="1.1" id="Слой_1" xmlns="http://www.w3.org/2000/svg" xmlns:xlink="http://www.w3.org/1999/xlink" x="0px" y="0px"
	 viewBox="0 0 200 161" style="enable-background:new 0 0 200 161;" xml:space="preserve">
<style type="text/css">
	.st0{fill:#FFFFFF;}
</style>
<path class="st0" d="M200,40c0,0.3,0,0.7,0,1c-1.1,1.2-2.4,2.3-3.4,3.5c-22.3,27.1-44.6,54.2-66.9,81.3
	c-9.6,11.7-19.1,23.5-28.7,35.2c-0.3,0-0.7,0-1,0C67,121.1,34.1,81.2,1.1,41.3c0.7-0.6,1-1,1.2-1c17.3,0,34.6-0.1,51.9,0.1
	c1.2,0,3,1.8,3.5,3.2c11.4,29.6,22.6,59.3,33.8,89c1.2,3.2,2.4,6.4,3.7,9.6c0.3-0.1,0.6-0.2,0.9-0.4C86.5,108.1,76.8,74.4,67,40.4
	c21.8,0,42.7,0,64.3,0c-9.2,34.6-18.4,68.8-27.5,103c6-12.9,10.9-26.1,15.9-39.3c7.5-20,15.2-40.1,22.6-60.1c1-2.7,2.2-3.8,5.3-3.8
	C165.1,40.3,182.5,40.1,200,40z M80,0c-5.1,11-10.2,22-15.6,33.5c23.5,0,46.1,0,69.6,0c-6.6-11.6-12.8-22.5-19-33.5
	C103.3,0,91.7,0,80,0z M200,31c-2.8-4.2-5.7-8.3-8.4-12.6C188,12.3,184.5,6.1,181,0c-7,0-14,0-21,0c-5,11.1-10.1,22.2-15.4,34
	c19,0,37.2,0,55.4,0C200,33,200,32,200,31z M19,0c-2.4,4.5-4.5,9.1-7.1,13.4C8.1,19.7,4,25.8,0,32c0,0.7,0,1.3,0,2
	c17.6,0,35.2,0,53.9,0C47.2,21.9,41.1,10.9,35,0C29.7,0,24.3,0,19,0z M43,0c5,9.4,10.1,18.8,16,29.7C63.7,18.9,67.9,9.4,72,0
	C62.3,0,52.7,0,43,0z M124,0c4.8,9.6,9.7,19.3,14.9,29.6C144,18.9,148.5,9.4,153,0C143.3,0,133.7,0,124,0z"/>
</svg>
