<?xml version="1.0" encoding="utf-8"?>
<!-- Generator: Adobe Illustrator 19.0.0, SVG Export Plug-In . SVG Version: 6.00 Build 0)  -->
<svg version="1.1" id="Слой_1" xmlns="http://www.w3.org/2000/svg" xmlns:xlink="http://www.w3.org/1999/xlink" x="0px" y="0px"
	 viewBox="0 0 300 367" style="enable-background:new 0 0 300 367;" xml:space="preserve">
<style type="text/css">
	.st0{fill:#FFFFFF;}
</style>
<path class="st0" d="M213,0c8.7,4.8,16.8,10.3,22.9,18.5c1.1,1.5,3.8,1.9,5.7,2.9c13.6,7.9,26.2,16.9,29.6,33.6
	c0.8,4.1,1.2,8.7,0.4,12.7c-2.8,14.4-11.9,25.1-23.6,32.9c-10.8,7.1-22.7,12.8-34.4,18.3c-6.8,3.2-14.3,4.7-21.4,7.1
	c-0.7,0.2-1.4,0.7-2.1,1c0.1,0.5,0.2,1,0.4,1.5c6.4-1.3,12.8-2.6,19.1-4c6.6-1.5,13.1-2.9,19.6-4.8c6.2-1.8,12.5-3.8,18.4-6.5
	c6.1-2.8,12.1-6.2,17.5-10.2c5.4-4,10.1-9.1,15.6-14.1c0.2,1.4,0.4,2.5,0.4,3.7c0,4.5-0.5,9.1,0,13.5c0.2,1.5,2.8,3.1,4.7,4
	c3.6,1.9,7.4,3.4,11.7,6.6c-4.5,2.7-8.8,6.3-13.6,7.9c-11.1,3.5-22.4,7.1-33.8,8.6c-13.2,1.7-26.6,1.2-39.9,1.5
	c-9.6,0.2-19.2,0.6-28.8,0.3c-8.8-0.3-17.7-1.9-26.5-1.8c-13.3,0.1-26.6,1.6-39.9,1.6c-19.5-0.1-39-0.5-58.4-1.9
	c-11-0.8-22.1-2.9-32.7-5.8c-6.8-1.9-14.3-4.1-19.2-11.4c4.2-1.9,8.2-3.9,12.2-5.6c3.6-1.4,5.3-3.7,4.8-7.6
	c-0.5-4.1-0.6-8.2-0.9-12.9c4.2,3.9,7.4,7.1,10.9,10.1c12.5,11,27.7,16.5,43.2,21.2c7.9,2.4,16.1,4,24.3,5.7c6,1.2,12,1.9,18.2,2
	c-5-1.7-10.1-3.1-15-5c-10.3-4-20.7-7.7-30.6-12.4c-11.2-5.3-21.8-12-30-21.3c-5-5.8-9.4-13.2-11.2-20.5c-2.2-9.1-1.4-18.6,5.2-27
	c8.1-10.4,17.9-18.2,29.8-23.7c1.6-0.7,2.2-3.3,3.5-4.8C74.9,6.9,82.1,2.4,91.1,1c0.3,0,0.6-0.7,0.9-1c2.7,0,5.3,0,8,0
	c0.9,0.9,1.7,1.9,2.7,2.7c4.8,3.9,10.7,7,14.2,11.8c5.7,7.8,10.7,16.3,14.6,25.2c5.3,12.2,9.3,25,13.6,37.6c2,6,3.5,12.2,5.2,18.3
	c2.2-4.5,3.1-9.1,4.5-13.6c2.9-9.8,5.8-19.7,9.1-29.4c1.8-5.3,4.7-10.2,6.9-15.4c5.7-13.2,13-25.3,25.2-33.6c2.9-1.9,6.6-2.5,10-3.7
	C208.3,0,210.7,0,213,0z M165.2,117c0.4,0.2,0.8,0.3,1.3,0.5c2.5-1.5,5-2.8,7.4-4.4c19.9-13.7,38.6-29.1,55.2-46.8
	c3.1-3.3,5.7-7.3,7.8-11.4c4.5-8.4,0.2-15.2-9.5-14.7c-3.7,0.2-5.9-1.1-7.9-3.4c-1.7-2-3.3-4.1-4.7-6.2c-4.1-6.2-9.2-6.7-13.4-0.6
	c-2.8,4.1-5.1,8.5-6.9,13.1c-5.6,14.6-10.7,29.3-16.4,43.9C174.1,97.2,169.5,107,165.2,117z M136.2,119.9c0.3-0.2,0.5-0.4,0.8-0.6
	c-3.2-8.2-6.5-16.4-9.7-24.5c-5.8-14.7-11.4-29.5-17.3-44.2c-2.4-6.1-4.7-12.2-7.8-17.9c-5.6-10-9.4-10.2-16.1-0.8
	c-3.4,4.7-6.6,8.9-13.1,8.9c-1.1,0-2.2,0.2-3.3,0.3c-4,0.3-8.4,4.5-7.4,7.7c1.3,3.9,2.8,7.9,5.2,11.2C76.1,71.6,87,81.2,98.2,90.3
	C110.7,100.4,123.5,110.1,136.2,119.9z M288,367c0-10.3-0.1-20.5,0-30.8c0-13.4,0.3-26.8,0.3-40.1c0-15.9-0.2-31.8-0.3-47.6
	c0-9.1,0-18.1,0-27.3c-1.6-0.4-2.8-1.1-4.1-1.1c-12.4,0-24.9,0.3-37.3,0.3c-15.6,0-31.2-0.2-46.8-0.3c-11.1-0.1-22.3-0.1-33.4,0.2
	c-1.3,0-3.5,2.6-3.5,4c-0.1,14.8,0.2,29.7,0.2,44.5c0,13.2-0.5,26.3-0.5,39.5c0,19.6,0.3,39.2,0.5,58.8C204.7,367,246.3,367,288,367
	z M139,367c0-13.2,0-26.4,0-39.7c-0.1-25.2-0.2-50.4-0.3-75.5c0-10.2,0-20.4,0-31.2c-42.2,0-83.8,0-124.7,0c0,48.9,0,97.6,0,146.4
	C55.7,367,97.3,367,139,367z M0,201c0.6,3.8,1.2,7.5,1.9,11.5c45.2,0,90.5,0,136.5,0c0-24.7,0-49.4,0-74.5C92.5,138,47,138,2,138
	c-0.8,4.2-1.4,7.6-2,11C0,166.3,0,183.7,0,201z M300,137c-10.2,0.3-20.4,0.8-30.7,0.9c-8.1,0.1-16.1-0.6-24.2-0.6
	c-9.2,0-18.4,0.5-27.7,0.5c-7.4,0-14.8-0.6-22.2-0.6c-10-0.1-20.1,0.1-30.1,0.3c-0.9,0-2.6,1.4-2.6,2.2c-0.2,5.6-0.2,11.2-0.2,16.8
	c0.1,15.8,0.3,31.6,0.5,47.4c0,2.7,0,5.3,0,8c46.2,0,91.6,0,137,0C300,187,300,162,300,137z"/>
</svg>
