<?xml version="1.0" encoding="utf-8"?>
<!-- Generator: Adobe Illustrator 19.0.0, SVG Export Plug-In . SVG Version: 6.00 Build 0)  -->
<svg version="1.1" id="Слой_1" xmlns="http://www.w3.org/2000/svg" xmlns:xlink="http://www.w3.org/1999/xlink" x="0px" y="0px"
	 viewBox="-213 302.1 184.6 188.9" style="enable-background:new -213 302.1 184.6 188.9;" xml:space="preserve">
<style type="text/css">
	.st0{fill:#FFFFFF;}
</style>
<path class="st0" d="M-119.7,309.7c48.2,0,86.8,38.7,86.7,86.8c-0.1,48.2-38.9,86.8-86.9,86.6c-48.1-0.2-86.3-38.5-86.5-86.5
	C-206.6,348.5-167.9,309.7-119.7,309.7z M-119.7,418.8c0,6.5-0.4,12.5,0.2,18.3c0.2,2.4,1.6,5.4,3.5,6.9c2.4,1.8,4.8-0.4,6.8-2.4
	c11.7-11.8,23.7-23.7,35.5-35.5c3.2-3.2,6.2-6.4,9.5-9.8c-15-15-29.6-29.6-44.1-44.1c-2.3-2.3-4.2-5.1-7.9-3.6
	c-3.9,1.6-3.3,5.3-3.4,8.5c-0.1,5.5,0,11.2,0,16.8c-1.3,0.1-2.1,0.2-2.9,0.2c-10.5,0-20.9-0.1-31.5,0c-7.4,0.1-9.9,2.5-9.9,9.9
	c0,7.8,0,15.6,0,23.5c0,9.3,2.1,11.4,11.2,11.4C-142,418.8-131.2,418.8-119.7,418.8z"/>
</svg>
