<?xml version="1.0" encoding="utf-8"?>
<!-- Generator: Adobe Illustrator 19.0.0, SVG Export Plug-In . SVG Version: 6.00 Build 0)  -->
<svg version="1.1" id="Слой_1" xmlns="http://www.w3.org/2000/svg" xmlns:xlink="http://www.w3.org/1999/xlink" x="0px" y="0px"
	 viewBox="0 0 93.2 72" style="enable-background:new 0 0 93.2 72;" xml:space="preserve">
<style type="text/css">
	.st0{fill:#E73556;stroke:#D3D3D3;stroke-miterlimit:10;}
</style>
<g id="XMLID_3_">
	<path id="XMLID_4_" class="st0" d="M70.4,48.2C70.4,60.7,60.1,67,39.5,67c-3.6,0-9.1-0.1-16.7-0.3c0.4-9.5,0.6-20.2,0.6-32.1
		c0-11.5-0.2-21.2-0.6-29.3h7.7c1.5,0,3.9,0,7.3-0.1C41.3,5,43.9,5,45.9,5c14,0,21,4.5,21,13.6c0,7-3.6,11.6-10.8,13.9v0.7
		c3.8,0.6,7.2,2.1,10,4.5C68.9,40,70.4,43.5,70.4,48.2z M54.1,22.3c0-5.6-3.5-8.4-10.6-8.4c-3.3,0-6.1,0.2-8.7,0.7
		c0.3,3.2,0.5,8.6,0.5,16.4c1.2,0.1,2.5,0.1,3.8,0.1C49.1,31,54.1,28.1,54.1,22.3z M57.6,48.7c0-6.3-5.5-9.4-16.5-9.4
		c-2.2,0-4.1,0.1-5.6,0.2c0,6.6,0.1,12.6,0.4,18.2c1.1,0.3,2.7,0.4,4.8,0.4c5.8,0,10.1-0.7,12.8-2.1C56.2,54.6,57.6,52.2,57.6,48.7z
		"/>
</g>
</svg>
