<?xml version="1.0" encoding="utf-8"?>
<!-- Generator: Adobe Illustrator 19.0.0, SVG Export Plug-In . SVG Version: 6.00 Build 0)  -->
<svg version="1.1" id="Слой_1" xmlns="http://www.w3.org/2000/svg" xmlns:xlink="http://www.w3.org/1999/xlink" x="0px" y="0px"
	 viewBox="-49 141 512 512" style="enable-background:new -49 141 512 512;" xml:space="preserve">
<style type="text/css">
	.st0{fill:#999999;}
</style>
<path class="st0" d="M222,653c-10,0-20,0-30,0c-1.4-0.3-2.9-0.8-4.3-0.9c-20.9-1.4-41.4-5.1-61-12.2
	c-94.5-34.3-152-100.6-171.8-199.3c-1.8-9.4-2.6-19.1-3.9-28.6c0-10,0-20,0-30c0.3-1.6,0.8-3.2,0.9-4.8c1.9-26.8,7.6-52.8,18.4-77.3
	c37.3-85.2,101.6-137.2,193.1-155c9.4-1.8,19.1-2.6,28.6-3.9c10,0,20,0,30,0c1.4,0.3,2.9,0.8,4.3,0.9c25.1,1.7,49.5,6.8,72.7,16.4
	c88,36.5,141.6,101.5,160,195.2c1.9,9.4,2.7,19.1,3.9,28.6c0,10,0,20,0,30c-0.3,1.5-0.8,2.9-0.9,4.4c-1.7,25.1-6.8,49.5-16.4,72.7
	c-36.5,88-101.5,141.6-195.2,160C241.2,650.9,231.5,651.7,222,653z M314.9,556.2c6,0.2,11.2-2.2,15.3-6.3
	c10.3-10,20.5-20.1,30.4-30.4c7.1-7.4,7.6-16.5,1.8-25.1c-1.5-2.2-3.4-4.1-5.2-6c-24.8-24.9-49.7-49.7-74.6-74.6
	c-11.6-11.6-11.6-22.1-0.1-33.6c25.3-25.3,50.7-50.7,76-76c10.3-10.4,10.4-21.4,0.1-31.9c-8.5-8.7-17.2-17.2-25.8-25.8
	c-11.8-11.8-22.2-11.8-34,0c-24.9,24.8-49.7,49.7-74.6,74.6c-1.6,1.6-3.3,3.3-5.1,4.7c-6.4,5-13.4,5.8-20.5,1.9
	c-3.3-1.8-6.3-4.3-9-7c-25-24.9-50-49.9-75-74.9C103.8,235,92.8,235,82,245.7c-8.6,8.6-17.2,17.2-25.8,25.8
	c-11.3,11.3-11.3,22.1,0,33.3c25,25,50,50,74.9,74.9c12,12,12,22.3,0,34.4c-25.4,25.5-50.9,50.9-76.3,76.4c-9,9.1-9.6,20.1-0.9,29.3
	C64,530.6,74.6,541,85.4,551.2c6.4,6.1,14.5,6.7,22.2,2.4c2.8-1.6,5.4-3.8,7.8-6.2c25.5-25.4,50.9-50.9,76.4-76.3
	c9.8-9.7,20.9-9.6,30.8,0c0.6,0.6,1.2,1.2,1.8,1.8c25.2,25.2,50.4,50.4,75.6,75.6C304,552.8,308.5,556.3,314.9,556.2z"/>
</svg>
