<?xml version="1.0" encoding="utf-8"?>
<!-- Generator: Adobe Illustrator 19.0.0, SVG Export Plug-In . SVG Version: 6.00 Build 0)  -->
<svg version="1.1" id="Слой_1" xmlns="http://www.w3.org/2000/svg" xmlns:xlink="http://www.w3.org/1999/xlink" x="0px" y="0px"
	 viewBox="-45.9 263.8 314 314" style="enable-background:new -45.9 263.8 314 314;" xml:space="preserve">
<style type="text/css">
	.st0{fill:#E83556;}
	.st1{fill:#FFFFFF;}
</style>
<circle class="st0" cx="111.1" cy="420.8" r="157"/>
<g>
	<path class="st1" d="M67.8,409.7c5.8-2.9,11.1-5.8,16.7-8.2c10.4-4.5,21.2-7.6,32.2-9.5c0.4-0.1,0.9-0.2,1.4-0.3
		c3.3-0.8,5.2-3.7,4.7-7.2c-0.5-3.5-3.3-5.8-6.5-5c-9.2,2.3-18.3,4.4-27.4,7.2c-10,3.2-19.6,7.8-28.3,14.6c-5.2,4.1-9.9,9-12.7,15.8
		c-0.7,1.7-0.9,3.1,0.2,5c2.6,4.7,1.7,10.5-1.7,14.6c-0.8,0.9-1.4,2.5-1.3,3.7c0.7,13.1,0.7,26.3-1,39.3c-1.2,9.6-3.1,18.9-7.6,27.3
		c-3,5.6-6.9,10.3-12.8,10.9c-3.1,0.3-6.6-0.3-9.6-1.5c-6.1-2.5-10.9-7.3-15.5-12.9c0.6-0.7,1.2-1.3,1.8-1.8
		c15.3-14.8,26.4-32.9,31.3-55.8c0.3-1.3,0.4-2.7,0.7-4c0.6-2.9,0.4-5.2-1.2-7.9c-3.3-5.6-1.1-13.2,4.1-16.4c1-0.6,1.9-1.8,2.5-2.9
		c1.1-2.1,2-4.4,3-6.5c1-2,2.1-4,3.3-6.3C39,400,34,398.3,29,396.5c-5.5-2-10.9-4-16.3-5.9c-2.2-0.8-3.7-2-3.8-4.9
		c-0.1-3,1.5-4.4,3.8-5.2c33.8-12.1,67.5-24.3,101.2-36.5c1.4-0.5,3.1-0.6,4.5,0c33.8,12.1,67.6,24.3,101.4,36.5
		c2.2,0.8,3.6,2.3,3.7,5c0.1,2.8-1.5,4.1-3.6,5c-33.8,12.2-67.6,24.4-101.4,36.6c-1.3,0.4-2.9,0.6-4.1,0.1
		c-15.3-5.4-30.6-11-45.8-16.5C68.6,410.6,68.5,410.5,67.8,409.7z"/>
	<path class="st1" d="M63.9,421.8c9.9,3.6,19.2,6.9,28.5,10.3c6.2,2.2,12.4,4.4,18.5,6.7c3.6,1.4,7.2,1.3,10.8-0.1
		c14.7-5.4,29.5-10.6,44.2-16c0.7-0.2,1.3-0.4,2.5-0.8c1.6,6.2,3.2,12.2,4.7,18.4c0.4,1.8,0.6,3.8,1,5.6c1.5,7.1-0.3,13.2-4.2,18.6
		c-7.9,11.3-18.1,18.5-29.8,22.9c-24.9,9.5-48.2,5.1-69.5-12.9c-3.2-2.7-5.9-6.3-8.4-9.9c-4-5.6-5.5-12.1-3.9-19.3
		C60.3,437.8,62,430,63.9,421.8z"/>
</g>
</svg>
