<?xml version="1.0" encoding="utf-8"?>
<!-- Generator: Adobe Illustrator 19.0.0, SVG Export Plug-In . SVG Version: 6.00 Build 0)  -->
<svg version="1.1" id="Слой_1" xmlns="http://www.w3.org/2000/svg" xmlns:xlink="http://www.w3.org/1999/xlink" x="0px" y="0px"
	 viewBox="34 395.9 50 50" style="enable-background:new 34 395.9 50 50;" xml:space="preserve">
<style type="text/css">
	.st0{fill:#E83556;}
	.st1{fill:#FFFFFF;}
</style>
<circle class="st0" cx="59" cy="420.9" r="25"/>
<path class="st1" d="M59,423.1c4,0,8.1,0,12.1,0c0.8,0,1.2,0.3,1.4,1.1c0,0.1,0,0.2,0,0.3c-0.9,4-1.7,6.8-2.6,10.8
	c-0.1,0.2-0.1,0.5-0.1,0.7c-0.1,0.3-0.4,0.6-0.9,0.6c-6,0-12,0-18,0c-0.6,0-1.2,0-1.8,0c-0.7,0-1-0.2-1.1-0.9
	c-0.3-1.6-0.7-3.3-1-4.9c-0.5-2.4-1-3.5-1.5-5.9c-0.2-1,0.3-1.7,1.3-1.7C50.9,423.1,54.9,423.1,59,423.1z M61.1,429.4
	c0-1.3-1-2.4-2.2-2.4s-2.4,1-2.4,2.3c-0.1,1.3,1,2.5,2.3,2.5C60.1,431.8,61.1,430.7,61.1,429.4z M64.1,410.7
	c-0.1,2.4-0.6,4.5-2.1,6.3c-0.9,1-2,1.7-3.4,1.6c-1.4-0.1-2.4-0.8-3.3-1.9c-1-1.3-1.5-2.7-1.7-4.3c-0.1-1-0.2-2,0.1-3
	c0.6-2.4,2.8-4.1,5.2-4c2.3,0,4.3,1.6,4.9,3.9C64,409.8,64,410.4,64.1,410.7z M54.2,411.9c0,0.2,0,0.3,0,0.5
	c0.2,1.7,0.8,3.2,2.1,4.4c1.4,1.4,3.4,1.4,4.9,0c1-0.9,1.6-2,1.9-3.2c0.2-0.8,0.3-1.6,0.4-2.4c0,0-0.1,0-0.1,0
	c-0.2,0.2-0.4,0.4-0.6,0.6c-0.1-1.2-0.6-2.1-1.1-3c-0.5,0.2-1,0.4-1.5,0.6c-1.5,0.4-2.9,0.1-4.3-0.5c-0.5-0.2-0.8-0.1-0.9,0.4
	c-0.1,0.6-0.2,1.2-0.2,1.8c0,0.3,0,0.7,0.1,1.1C54.6,412.1,54.5,412,54.2,411.9z M54.7,418c0.1,0.8,0.7,1.3,1.4,1.6
	c1.9,0.9,3.8,0.9,5.7,0c0.7-0.3,1.3-0.8,1.4-1.6c1.5-0.3,4.6,1.7,5.3,3.4c-6.3,0-12.7,0-19,0C50.2,419.8,52.5,418.1,54.7,418z"/>
</svg>
