<?xml version="1.0" encoding="utf-8"?>
<!-- Generator: Adobe Illustrator 19.0.0, SVG Export Plug-In . SVG Version: 6.00 Build 0)  -->
<svg version="1.1" id="Слой_1" xmlns="http://www.w3.org/2000/svg" xmlns:xlink="http://www.w3.org/1999/xlink" x="0px" y="0px"
	 viewBox="-324.6 205.3 430.7 432.6" style="enable-background:new -324.6 205.3 430.7 432.6;" xml:space="preserve">
<style type="text/css">
	.st0{fill:#E83556;}
	.st1{fill:#FFFFFF;}
</style>
<circle class="st0" cx="-109.3" cy="421.6" r="216.3"/>
<path class="st1" d="M-168,354.5c0.6-11.4-0.1-22.3,1.9-32.6c5.9-29.6,33.5-48,65.2-44.8c27,2.8,49.8,28.2,50.4,56.3
	c0.1,3.1,0.3,6.3-0.1,9.4c-0.9,6.3-1.8,11.4,5.8,15.3c5.9,3,5.5,10.5,4.1,16.6c-1.8,7.5-4.1,14.8-6.8,22.1c-1,2.8-2.9,6-5.3,7.5
	c-10.8,6.6-11.8,19.6-18.6,28.6c-0.6,0.8,0.3,3.6,1.3,4.4c5.3,4,10.4,8.5,16.3,11.4c8.4,4.1,17.3,7.1,26.2,10.2
	c24.1,8,35.5,25,36.1,49.8c0.3,8.2,0.6,16.3,0.3,24.5c-0.6,13.9-7,23.1-20.7,26.5c-13.7,3.4-27.8,6-41.9,6.4
	c-36.8,0.9-73.5,0.9-110.3,0c-13.8-0.4-27.8-2.9-41.3-6.1c-14.9-3.8-22.2-13.3-22.3-28.3c-0.1-12.7,1-25.3,2.5-38
	c1.5-12.2,8.5-21.4,19.3-27c11.9-6,24.6-10.3,36.6-16.2c7.4-3.6,14.3-8.4,21.2-12.9c2.8-1.8,3.4-4.3,1.4-7.5
	c-4.4-7.1-8.4-14.4-12.7-21.6c-0.3-0.5-0.6-1.1-1.1-1.4c-15.6-7.8-14.3-23.8-17.6-37.3C-179.7,362.5-175,356.6-168,354.5z
	 M-122,456.8c-1,0.3-2.3,3.6-1.8,4.8c1.9,4.1,4.1,8.3,7,11.8c2.5,3.1,2.9,6,2,9.7c-3.4,15.1-6.5,30.1-9.7,45.2
	c-1.6,8,0.3,11.4,7.3,16.2c5.4,3.8,10.4,3.1,15.7-0.4c7-4.8,8.3-7.4,6.6-15.8c-3.1-15.6-6.5-31-9.4-46.5c-0.5-2.5,0.4-5.5,1.6-7.9
	c2.6-5.1,5.9-9.9,9.3-15.6C-103.7,454.5-112.8,454.5-122,456.8z"/>
</svg>
