<?xml version="1.0" encoding="utf-8"?>
<!-- Generator: Adobe Illustrator 19.0.0, SVG Export Plug-In . SVG Version: 6.00 Build 0)  -->
<svg version="1.1" id="Слой_1" xmlns="http://www.w3.org/2000/svg" xmlns:xlink="http://www.w3.org/1999/xlink" x="0px" y="0px"
	 viewBox="0 0 319 320" style="enable-background:new 0 0 319 320;" xml:space="preserve">
<style type="text/css">
	.st0{fill:#E83556;}
	.st1{fill:#FFFFFF;}
</style>
<circle class="st0" cx="160" cy="160" r="160"/>
<path class="st1" d="M262.6,147.4c-0.5,1.8-1.1,3.7-1.6,5.5c-3,9.8-12,16.5-22.8,16.8c-0.5,0-0.9,0-1.4,0c-4.3,0.2-9.7-1.1-12.7,1
	c-3,2.1-3.7,7.6-5.4,11.6c-1.8,4.4-3.3,9.1-5.5,13.3c-0.9,1.8-3.5,3.9-5.2,3.8c-2-0.1-4.7-2.1-5.6-3.9c-3.2-6.9-5.9-14.1-8.6-21.3
	c-1.2-3.2-2.8-4.7-6.5-4.5c-9.2,0.3-18.4,0.1-27.6,0.1c-5.3,0-7.5-1.6-7.6-5.6c-0.1-4.1,1.9-5.7,7.3-5.7c11.3,0,22.6,0.1,33.9-0.1
	c4.5-0.1,7,1.7,8.4,5.8c1.6,4.6,3.7,9.1,6.1,14.9c2.3-5.7,4.4-10.2,6-14.8c1.5-4.4,4.2-6.2,8.8-5.9c5.1,0.3,10.3,0.1,15.4,0
	c7.3-0.1,12.9-5.6,12.9-12.9c0.1-20.1,0.1-40.1,0-60.2c0-8.1-5.8-13.2-14.6-13.2c-20.5-0.1-41,0-61.6,0c-14.5,0-29,0-43.5,0
	c-10.1,0-15.3,5.1-15.4,15.2c-0.1,10.1,0.1,20.2-0.1,30.3c-0.1,4.9-4.6,7.6-8.3,4.9c-1.2-0.9-2.3-2.9-2.3-4.4
	c-0.2-11.9-0.3-23.8,0-35.8c0.3-10.5,10.2-20.5,20.8-20.8c11.5-0.4,22.9-0.2,34.4-0.2c24.9,0,49.8,0,74.7,0
	c15.7,0,22.7,5.4,26.7,20.6c0.1,0.4,0.5,0.7,0.8,1.1C262.6,104.5,262.6,125.9,262.6,147.4z M115.8,260.3c6.2,0,12.5,0.7,18.5-0.2
	c8.7-1.2,17.5-2.8,25.9-5.5c8-2.6,10.4-7.7,9.6-15.8c-0.5-5.1-3.3-9.4-7.4-11.9c-8.6-5.1-17.5-9.8-26.5-14.2
	c-4.9-2.4-7.5-6.1-6.1-11.5c0.6-2.4,1.9-4.7,3.4-6.7c9.3-12.4,14.7-25.9,11.3-41.7c-3.2-15-15.2-25-29.6-24
	c-20.1,1.3-29.2,17.6-28.4,34.7c0.5,12.2,5.6,23,13.4,32.4c1.3,1.5,2.2,3.6,2.5,5.6c0.7,5.4-1.7,8.9-7.1,11.1
	c-10.6,4.4-21.1,9-29,17.7c-7.3,8-5.2,19,4.5,23.7c2.1,1.1,4.4,2.2,6.7,2.5c12.8,1.9,25.5,3.5,38.3,5.2
	C115.7,261.4,115.8,260.8,115.8,260.3z M205.8,115.4c-0.3,4.2,3.6,8.2,7.9,8.2c4.1,0,7.8-3.6,7.8-7.7c0.1-4.1-3.5-7.9-7.6-8
	C209.9,107.7,206,111.3,205.8,115.4z M151.5,123.6c4.2,0.3,8.3-3.4,8.4-7.7c0.1-4-3.5-7.8-7.7-8.1c-4-0.2-7.9,3.4-8.1,7.5
	C144,119.5,147.4,123.3,151.5,123.6z M183.2,107.8c-4.2-0.2-8.2,3.7-8.2,7.9c0,4.1,3.7,7.8,7.8,7.8c4.1,0,7.8-3.6,7.9-7.7
	C190.8,111.8,187.3,108,183.2,107.8z"/>
</svg>
