<?xml version="1.0" encoding="utf-8"?>
<!-- Generator: Adobe Illustrator 19.0.0, SVG Export Plug-In . SVG Version: 6.00 Build 0)  -->
<svg version="1.1" id="Слой_1" xmlns="http://www.w3.org/2000/svg" xmlns:xlink="http://www.w3.org/1999/xlink" x="0px" y="0px"
	 viewBox="17.6 372 75 50" style="enable-background:new 17.6 372 75 50;" xml:space="preserve">
<style type="text/css">
	.st0{fill:#FDFDFE;}
	.st1{fill:#0433FE;}
	.st2{fill:#FD2601;}
</style>
<g>
	<path class="st0" d="M17.6,388.6c0-5.3,0-10.6,0-15.9c0-0.6,0.1-0.7,0.6-0.7c24.6,0,49.2,0,73.7,0c0.5,0,0.6,0.1,0.6,0.7
		c0,5.3,0,10.6,0,15.9C67.6,388.6,42.6,388.6,17.6,388.6z"/>
	<path class="st1" d="M17.6,388.6c25,0,50,0,75,0c0,5.5,0,11.1,0,16.7c-25,0-50,0-75,0C17.6,399.7,17.6,394.2,17.6,388.6z"/>
	<path class="st2" d="M17.6,405.3c25,0,50,0,75,0c0,5.3,0,10.6,0,15.9c0,0.6-0.1,0.7-0.6,0.7c-24.6,0-49.2,0-73.7,0
		c-0.5,0-0.6-0.1-0.6-0.7C17.6,415.9,17.6,410.6,17.6,405.3z"/>
</g>
</svg>
