<?xml version="1.0" encoding="utf-8"?>
<!-- Generator: Adobe Illustrator 19.0.0, SVG Export Plug-In . SVG Version: 6.00 Build 0)  -->
<svg version="1.1" id="Слой_1" xmlns="http://www.w3.org/2000/svg" xmlns:xlink="http://www.w3.org/1999/xlink" x="0px" y="0px"
	 viewBox="-268 372 75 50" style="enable-background:new -268 372 75 50;" xml:space="preserve">
<style type="text/css">
	.st0{fill:#CE142B;}
	.st1{fill:#FDFCFD;}
	.st2{fill:#01257D;}
</style>
<g>
	<path class="st0" d="M-235.5,371.9c3.3,0,6.6,0,9.9,0c0,0.2,0,0.4,0,0.6c0,6.3,0,12.6,0,18.9c0,0.5,0.1,0.6,0.6,0.6
		c10.5,0,20.9,0,31.4,0c0.2,0,0.3,0,0.5,0c0,3.3,0,6.7,0,10c-0.1,0-0.1,0-0.2,0c-10.6,0-21.2,0-31.8,0c-0.4,0-0.4,0.2-0.4,0.5
		c0,6.3,0,12.6,0,19c0,0.2,0,0.4,0,0.6c-3.3,0-6.6,0-9.9,0c0-0.2,0-0.4,0-0.6c0-6.3,0-12.6,0-18.9c0-0.5-0.1-0.6-0.6-0.6
		c-10.5,0-20.9,0-31.4,0c-0.2,0-0.3,0-0.5,0c0-3.3,0-6.7,0-10c0.1,0,0.1,0,0.2,0c10.6,0,21.2,0,31.8,0c0.4,0,0.4-0.2,0.4-0.5
		c0-6.3,0-12.6,0-19C-235.5,372.2-235.5,372.1-235.5,371.9z"/>
	<path class="st1" d="M-235.5,371.9c0,0.2,0,0.4,0,0.6c0,6.3,0,12.6,0,19c0,0.3,0,0.5-0.4,0.5c-10.6,0-21.2,0-31.8,0
		c-0.1,0-0.1,0-0.2,0c0-1.1,0-2.2,0-3.3c0.2,0,0.3,0,0.5,0c2.8,0,5.6,0,8.5,0c0.2,0,0.3,0.1,0.5-0.1c-3.2-1.7-6.3-3.3-9.5-4.9
		c0-0.6,0-1.2,0-1.8c0.2,0,0.3,0.1,0.4,0.1c4.1,2.1,8.2,4.1,12.4,6.2c0.4,0.2,0.8,0.3,1.2,0.3c2.1,0,4.1,0,6.2,0
		c0.1,0,0.3,0.1,0.4-0.1c-0.2-0.1-0.4-0.2-0.6-0.3c-5.5-2.7-10.9-5.5-16.3-8.2c-1.2-0.6-2.3-1.2-3.6-1.7c0-1.8,0-3.7,0-5.5
		c0.1-0.1,0.3,0,0.4,0.1c1.2,0.5,2.4,1.1,3.5,1.7c6.6,3.3,13.3,6.7,19.8,10c1.6,0.8,3.3,1.6,4.9,2.5c0.3,0.2,0.4,0.1,0.4-0.2
		c0-0.6,0-1.3,0-1.9c0-4.3,0-8.6,0-12.9C-237.7,371.9-236.6,371.9-235.5,371.9z"/>
	<path class="st1" d="M-225.5,422c0-0.2,0-0.4,0-0.6c0-6.3,0-12.6,0-19c0-0.3,0-0.5,0.4-0.5c10.6,0,21.2,0,31.8,0c0.1,0,0.1,0,0.2,0
		c0,1.1,0,2.2,0,3.3c-0.2,0-0.3,0-0.5,0c-2.8,0-5.6,0-8.5,0c-0.2,0-0.3-0.1-0.5,0.1c3.2,1.6,6.3,3.2,9.4,4.7c0,0.6,0,1.2,0,1.8
		c-0.2,0-0.3-0.1-0.4-0.1c-4.1-2.1-8.2-4.1-12.4-6.2c-0.4-0.2-0.8-0.3-1.2-0.3c-2.1,0-4.1,0-6.2,0c-0.1,0-0.3-0.1-0.4,0.1
		c0.2,0.1,0.4,0.2,0.6,0.3c5.5,2.7,10.9,5.5,16.3,8.2c1.2,0.6,2.3,1.2,3.6,1.7c0,1.8,0,3.7,0,5.5c-0.1,0.1-0.3,0-0.4-0.1
		c-1.2-0.6-2.4-1.2-3.6-1.8c-6.6-3.3-13.3-6.7-19.8-10c-1.6-0.8-3.3-1.6-4.9-2.5c-0.3-0.2-0.4-0.1-0.4,0.2c0,0.6,0,1.3,0,1.9
		c0,4.3,0,8.6,0,12.9C-223.3,422-224.4,422-225.5,422z"/>
	<path class="st1" d="M-193.1,392c-0.2,0-0.3,0-0.5,0c-10.5,0-20.9,0-31.4,0c-0.4,0-0.6-0.1-0.6-0.6c0-6.3,0-12.6,0-18.9
		c0-0.2,0-0.4,0-0.6c1.1,0,2.2,0,3.4,0c0,0.2,0,0.4,0,0.6c0,4.7,0,9.3,0,14c0,0.7,0,0.7,0.6,0.4c9.4-4.7,18.6-9.4,28-14.1
		c0.1-0.1,0.2-0.2,0.4-0.1c0,0.6,0,1.2,0,1.8c-0.1,0.1-0.3,0.1-0.4,0.2c-8.4,4.3-16.9,8.5-25.4,12.8c-0.7,0.3-1.3,0.7-2.1,1.1
		c0.2,0,0.2,0.1,0.3,0.1c2.2,0,4.5,0,6.7,0c0.2,0,0.5-0.1,0.7-0.2c5.6-2.8,11.2-5.6,16.7-8.4c1.2-0.6,2.4-1.3,3.6-1.8
		c0,1.9,0,3.8,0,5.6c-0.2-0.1-0.3,0.1-0.4,0.1c-1.9,0.9-3.7,1.9-5.6,2.8c-1.1,0.6-2.3,1.1-3.4,1.7c0.2,0.1,0.3,0.1,0.5,0.1
		c2.8,0,5.6,0,8.5,0c0.2,0,0.3,0,0.5,0C-193.1,389.7-193.1,390.9-193.1,392z"/>
	<path class="st1" d="M-267.9,402c0.2,0,0.3,0,0.5,0c10.5,0,20.9,0,31.4,0c0.4,0,0.6,0.1,0.6,0.6c0,6.3,0,12.6,0,18.9
		c0,0.2,0,0.4,0,0.6c-1.1,0-2.2,0-3.4,0c0-0.2,0-0.4,0-0.6c0-4.7,0-9.3,0-14c0-0.7,0-0.7-0.6-0.4c-9.4,4.7-18.6,9.4-28,14.1
		c-0.1,0.1-0.2,0.2-0.4,0.1c0-0.6,0-1.2,0-1.8c0.1-0.1,0.3-0.1,0.4-0.2c8.5-4.3,16.9-8.5,25.4-12.8c0.7-0.3,1.3-0.7,2.1-1.1
		c-0.2,0-0.2-0.1-0.3-0.1c-2.2,0-4.5,0-6.7,0c-0.2,0-0.5,0.1-0.7,0.2c-5.6,2.8-11.2,5.6-16.7,8.4c-1.2,0.6-2.4,1.3-3.6,1.8
		c0-1.9,0-3.8,0-5.6c0.2,0.1,0.3-0.1,0.5-0.1c1.8-1,3.7-1.9,5.5-2.8c1.1-0.6,2.3-1.1,3.4-1.7c-0.2-0.2-0.3-0.1-0.5-0.1
		c-2.8,0-5.6,0-8.5,0c-0.2,0-0.3,0-0.5,0C-267.9,404.2-267.9,403.1-267.9,402z"/>
	<path class="st2" d="M-238.8,371.9c0,4.3,0,8.6,0,12.9c0,0.6,0,1.3,0,1.9c0,0.3-0.1,0.4-0.4,0.2c-1.6-0.8-3.3-1.6-4.9-2.5
		c-6.6-3.3-13.3-6.7-19.8-10c-1.2-0.5-2.4-1.1-3.6-1.7c-0.1,0-0.2-0.2-0.4-0.1c0-0.7,0-0.7,0.8-0.7
		C-257.7,371.9-248.2,371.9-238.8,371.9z"/>
	<path class="st2" d="M-193.1,372.6c-0.2-0.1-0.3,0-0.4,0.1c-9.4,4.7-18.6,9.4-28,14.1c-0.6,0.3-0.6,0.3-0.6-0.4c0-4.7,0-9.3,0-14
		c0-0.2,0-0.4,0-0.6c9.5,0,19,0,28.5,0c0.5,0,0.7,0.1,0.6,0.6C-193.1,372.5-193.1,372.6-193.1,372.6z"/>
	<path class="st2" d="M-267.9,421.3c0.2,0.1,0.3,0,0.4-0.1c9.4-4.7,18.6-9.4,28-14.1c0.6-0.3,0.6-0.3,0.6,0.4c0,4.7,0,9.3,0,14
		c0,0.2,0,0.4,0,0.6c-9.5,0-19,0-28.5,0c-0.5,0-0.7-0.1-0.6-0.6C-267.9,421.4-267.9,421.3-267.9,421.3z"/>
	<path class="st2" d="M-222.1,422c0-4.3,0-8.6,0-12.9c0-0.6,0-1.3,0-1.9c0-0.3,0.1-0.4,0.4-0.2c1.6,0.8,3.3,1.6,4.9,2.5
		c6.6,3.3,13.3,6.7,19.8,10c1.2,0.6,2.4,1.2,3.6,1.8c0.1,0.1,0.2,0.2,0.4,0.1c0,0.8,0,0.8-0.7,0.8C-203.3,422-212.8,422-222.1,422z"
		/>
	<path class="st0" d="M-193.1,378.2c-1.3,0.5-2.4,1.2-3.6,1.8c-5.6,2.8-11.2,5.6-16.7,8.4c-0.2,0.1-0.4,0.2-0.7,0.2
		c-2.2,0-4.5,0-6.7,0c-0.1,0-0.1,0-0.3-0.1c0.8-0.4,1.4-0.7,2.1-1.1c8.5-4.3,17-8.5,25.5-12.8c0.1-0.1,0.3-0.1,0.4-0.2
		C-193.1,375.7-193.1,376.9-193.1,378.2z"/>
	<path class="st0" d="M-267.9,415.7c1.3-0.5,2.4-1.2,3.6-1.8c5.6-2.8,11.2-5.6,16.7-8.4c0.2-0.1,0.4-0.2,0.7-0.2c2.2,0,4.5,0,6.7,0
		c0.1,0,0.1,0,0.3,0.1c-0.8,0.4-1.4,0.7-2.1,1.1c-8.5,4.3-16.9,8.5-25.5,12.8c-0.1,0.1-0.3,0.1-0.4,0.2
		C-267.9,418.2-267.9,417-267.9,415.7z"/>
	<path class="st0" d="M-267.9,378.2c1.3,0.5,2.4,1.1,3.6,1.7c5.5,2.7,11,5.5,16.3,8.2c0.2,0.1,0.4,0.2,0.6,0.3
		c-0.1,0.1-0.3,0.1-0.4,0.1c-2.1,0-4.1,0-6.2,0c-0.4,0-0.8-0.1-1.2-0.3c-4.1-2.1-8.2-4.1-12.4-6.2c-0.1,0-0.2-0.1-0.4-0.1
		C-267.9,380.7-267.9,379.4-267.9,378.2z"/>
	<path class="st0" d="M-193.1,415.7c-1.2-0.5-2.4-1.1-3.6-1.7c-5.5-2.7-11-5.5-16.3-8.2c-0.2-0.1-0.4-0.2-0.6-0.3
		c0.1-0.1,0.3-0.1,0.4-0.1c2.1,0,4.1,0,6.2,0c0.4,0,0.8,0.1,1.2,0.3c4.1,2.1,8.2,4.1,12.4,6.2c0.1,0.1,0.3,0.2,0.4,0.1
		C-193.1,413.2-193.1,414.5-193.1,415.7z"/>
	<path class="st2" d="M-267.9,383.7c3.1,1.6,6.3,3.2,9.4,4.7c-0.2,0.2-0.3,0.1-0.5,0.1c-2.8,0-5.6,0-8.5,0c-0.2,0-0.3,0-0.5,0
		C-267.9,387-267.9,385.3-267.9,383.7z"/>
	<path class="st2" d="M-193.1,410.2c-3.1-1.6-6.3-3.2-9.4-4.7c0.2-0.2,0.3-0.1,0.5-0.1c2.8,0,5.6,0,8.5,0c0.2,0,0.3,0,0.5,0
		C-193.1,406.9-193.1,408.6-193.1,410.2z"/>
	<path class="st2" d="M-193.1,388.6c-0.2,0-0.3,0-0.5,0c-2.8,0-5.6,0-8.5,0c-0.1,0-0.3,0-0.5-0.1c1.2-0.6,2.3-1.2,3.4-1.7
		c1.9-0.9,3.7-1.9,5.6-2.8c0.1-0.1,0.2-0.2,0.4-0.1C-193.1,385.4-193.1,387-193.1,388.6z"/>
	<path class="st2" d="M-267.9,405.3c0.2,0,0.3,0,0.5,0c2.8,0,5.6,0,8.5,0c0.1,0,0.3-0.1,0.5,0.1c-1.2,0.6-2.3,1.2-3.5,1.8
		c-1.8,0.9-3.7,1.8-5.5,2.8c-0.2,0-0.3,0.2-0.5,0.1C-267.9,408.5-267.9,406.9-267.9,405.3z"/>
</g>
</svg>
