<?xml version="1.0" encoding="utf-8"?>
<!-- Generator: Adobe Illustrator 19.0.0, SVG Export Plug-In . SVG Version: 6.00 Build 0)  -->
<svg version="1.1" id="Слой_1" xmlns="http://www.w3.org/2000/svg" xmlns:xlink="http://www.w3.org/1999/xlink" x="0px" y="0px"
	 viewBox="0 0 75 50" style="enable-background:new 0 0 75 50;" xml:space="preserve">
<style type="text/css">
	.st0{fill:#FEFE0B;}
	.st1{fill:#268BFE;}
	.st2{fill:#0080FE;}
</style>
<g>
	<path class="st0" d="M75,25c0,8,0,16.1,0,24.1c0,0.8-0.2,0.9-1,0.9C49.7,50,25.4,50,1,50c-0.9,0-1-0.2-1-0.9C0,41.1,0,33,0,25
		c23.5,0,47,0,70.5,0c0.5,0,1.1,0,1.6,0C73.1,25,74,25,75,25z"/>
	<path class="st1" d="M75,25c-1,0-1.9,0-2.9,0c-0.6-0.4-1.2-0.2-1.8-0.2c-23.4,0-46.8,0-70.2,0C0,16.8,0,8.9,0,0.9C0,0.2,0.2,0,1,0
		C25.4,0,49.7,0,74,0c0.9,0,1,0.2,1,0.9C75,8.9,75,17,75,25z"/>
	<path class="st2" d="M0,24.7c23.4,0,46.8,0,70.2,0c0.6,0,1.3-0.2,1.8,0.2c-0.5,0-1.1,0-1.6,0C47,25,23.5,25,0,25
		C0,24.9,0,24.8,0,24.7z"/>
</g>
</svg>
