<?xml version="1.0" encoding="utf-8"?>
<!-- Generator: Adobe Illustrator 19.0.0, SVG Export Plug-In . SVG Version: 6.00 Build 0)  -->
<svg version="1.1" id="Слой_1" xmlns="http://www.w3.org/2000/svg" xmlns:xlink="http://www.w3.org/1999/xlink" x="0px" y="0px"
	 viewBox="-205.2 350.9 141.3 141" style="enable-background:new -205.2 350.9 141.3 141;" xml:space="preserve">
<style type="text/css">
	.st0{fill:#E83556;}
	.st1{fill:#FFFFFF;}
</style>
<circle class="st0" cx="-134.4" cy="421.4" r="70.8"/>
<path class="st1" d="M-170.8,456.4l-7.5-4.8c-6-6.9-5.6-16.4,0.9-22.7c1.7-1.6,3.8-2.9,5.8-4.3c2.4-1.8,2.4-3.9-0.2-5.6
	c-0.8-0.5-1.6-0.9-2.4-1.5c-10.5-7.1-11.2-19.9-1.5-27.8c2.6-2.1,5.5-3.9,8.7-4.9c5.9-2,12-3.4,18-5c5.6,0,11.3,0,16.9,0
	c0.7,0.3,1.4,0.6,2.2,0.8c5.5,1.5,11.3,2.4,16.6,4.6c8.9,3.7,15.7,9.4,14.5,20.6c-0.1,1.1,1.4,2.8,2.5,3.4
	c13,7.2,13.1,23.4,0.4,30.8c-4.1,2.4-6.2,3.5-3.1,7.2c0,0,3,3.3,0.3,6.6c-2.5,3-6.4,5-10.1,6.4c-6,2.2-11.6,1.8-18.4,2.7
	c-6.7,0.5-11.2,0.1-16.1,0c-7.8-1.1-14-0.4-19.6-3.2L-170.8,456.4z M-104.3,399.7c-2.8-5.5-6.6-7.8-10.8-9.7
	c-11.2-4.9-23.1-6-35-4.1c-6.8,1.1-13.8,2.9-19.7,6.3c-8.9,5.1-8.3,7.2-0.1,12.7c1,0.7,2.1,1.2,3.2,1.7c17.3,6.9,34.8,7.1,52-0.1
	C-111,404.9-107.8,402-104.3,399.7z M-160.5,424.7c2,1.1,3.8,2.4,5.8,3.3c8.9,4.2,18.5,5.2,28.2,5.1c9.1-0.1,18-1.4,26-6
	c3-1.7,5.3-4.7,7.8-7c-2.7-2.5-5.3-5-8.1-7.5c-0.1-0.1-0.5,0-0.4,0C-118.8,428.2-139.2,427.4-160.5,424.7z M-129.9,448
	c-15.9-1.8-31.2-3.1-40.7-19.1c-2.4,2.3-4.7,4.3-6.4,6C-171.8,445.9-147.5,451.8-129.9,448z M-140.1,390.7c-6.2,0-12.4,0-19.6,0
	c1.7,1.4,2.6,2.1,3.7,3c-3,2.6-2,4.5,0.9,5.9c1.3,0.6,2.8,1.2,4.3,1.1c4-0.3,7.9-0.9,11.9-1.4c1.8-0.2,3.5-0.5,6.2-0.8
	c-3.9,4.3-9.5,0.9-12.7,6.1c3,0.2,5.2,0.6,7.3,0.3c3.9-0.5,7.5-1.2,11.3,0.5c1.2,0.5,3-0.2,4.6-0.3c0-0.3,0-0.7,0.1-1.1
	c-1.4-0.7-2.6-1.6-4-2.3c2.6-4.2,2.2-5.7-2.6-7.1c-1.6-0.5-3.5-0.7-5.1-0.5c-4.1,0.5-8.1,1.4-12.2,2.1c-0.9,0.1-1.8,0-2.6,0
	c0-0.3,0-0.6-0.1-0.9c3-0.9,6-1.8,8.9-2.6C-139.9,392-140,391.4-140.1,390.7z"/>
</svg>
