<?xml version="1.0" encoding="utf-8"?>
<!-- Generator: Adobe Illustrator 19.0.0, SVG Export Plug-In . SVG Version: 6.00 Build 0)  -->
<svg version="1.1" id="Слой_1" xmlns="http://www.w3.org/2000/svg" xmlns:xlink="http://www.w3.org/1999/xlink" x="0px" y="0px"
	 viewBox="-134 260.7 320 320.2" style="enable-background:new -134 260.7 320 320.2;" xml:space="preserve">
<style type="text/css">
	.st0{fill:#E83556;}
	.st1{fill:#FFFFFF;}
</style>
<circle class="st0" cx="26" cy="420.7" r="160"/>
<g>
	<path class="st1" d="M132.6,428.6c-21.3,23.6-45.5,42.5-75.4,55.3c0,14.6,0,30,0,45.7c-27.4,0-54.2,0-81.5,0c0-1.4,0-2.7,0-4
		c0-12.8-0.1-25.6,0.1-38.4c0-2.1-0.6-3.3-2.4-4.6c-19.1-13.4-34-30.4-41.7-52.7c-3.9-11.5-3.6-9.9,6.8-14.5c3.3-1.5,7-2,10.4-3.2
		c2.2-0.8,3.1-0.1,3.9,2c4.6,11.5,10.8,21.9,19.6,30.7c16.4,16.4,36.2,21.9,58.8,18.2c25-4.2,45.5-17,63.5-34.3
		c4.9-4.7,9.4-9.9,13.8-15.1c1.5-1.7,2.6-1.9,4.4-0.9C120.2,416.6,126.2,422.3,132.6,428.6z"/>
	<path class="st1" d="M24.1,384.3c16.5-0.4,23.1,6.2,27.5,15.5c7.3,15.3,2.8,30.6-12.1,41.7c-9.4,7-19.6,10.3-30.8,4.8
		C-6.9,438.7-13,416.2-2.9,402C4.8,391,15.7,384.7,24.1,384.3z M32,397.7c-1.8,6.5-3.7,12.7-5.5,19.2c2.7,0.3,4.4,0.4,6,0.5
		c1.6-5.7,3.3-11.3,5-17.1C35.9,399.7,34.3,398.9,32,397.7z M12.8,395.6c-1.6,6.6-3,12.9-4.6,19.5c2.5,0,4,0,5.3,0
		c1.4-5.8,2.8-11.5,4.2-17.4C16.3,397.1,14.9,396.5,12.8,395.6z"/>
	<path class="st1" d="M-43.5,372.1c-7.5-0.1-13.2-5.3-13.2-11.9c0-8.4,7.3-17.7,13.8-17.7c8,0.1,14.5,5.9,14.6,13.2
		C-28.2,364.4-35.4,372.1-43.5,372.1z"/>
	<path class="st1" d="M80.5,324.2c0,8.9-5.4,14.7-13.3,14.2c-5.5-0.4-8.7-4.1-10.6-8.7c-1.8-4.3-2.5-8.8,1.3-12.7
		c2.5-2.6,5-5.3,7.9-7.5c3.5-2.7,7-2,9.9,1.3C78.9,314.7,80.7,319,80.5,324.2z"/>
	<path class="st1" d="M5.7,309.3c5.8-0.1,9.8,3.5,10.5,9.6c0.8,6.3-3.7,14.6-9.4,17.4C6,336.8,5,337,4,337
		c-6.2,0.3-13.4-7.7-12.5-13.9C-7.3,314.9-1.7,309.4,5.7,309.3z"/>
	<path class="st1" d="M32,397.7c2.3,1.1,3.9,1.9,5.4,2.7c-1.7,5.8-3.4,11.3-5,17.1c-1.6-0.1-3.3-0.3-6-0.5
		C28.3,410.5,30.1,404.3,32,397.7z"/>
	<path class="st1" d="M12.8,395.6c2.2,0.9,3.5,1.5,4.9,2.1c-1.5,5.9-2.8,11.6-4.2,17.4c-1.3,0-2.8,0-5.3,0
		C9.8,408.4,11.2,402.2,12.8,395.6z"/>
</g>
</svg>
