<?xml version="1.0" encoding="utf-8"?>
<!-- Generator: Adobe Illustrator 19.0.0, SVG Export Plug-In . SVG Version: 6.00 Build 0)  -->
<svg version="1.1" id="Capa_1" xmlns="http://www.w3.org/2000/svg" xmlns:xlink="http://www.w3.org/1999/xlink" x="0px" y="0px"
	 viewBox="-80 204.6 433.3 433.3" style="enable-background:new -80 204.6 433.3 433.3;" xml:space="preserve">
<style type="text/css">
	.st0{fill:#E83556;}
	.st1{fill:#FFFFFF;}
</style>
<circle class="st0" cx="136.6" cy="421.2" r="216.3"/>
<g>
	<g>
		<circle class="st1" cx="152.4" cy="405.9" r="5.8"/>
		<circle class="st1" cx="185.5" cy="365.2" r="7.7"/>
		<circle class="st1" cx="119" cy="355.2" r="10.3"/>
		<path class="st1" d="M226.6,321.3c-12.5-15.7-44.9-42.1-87.3-42.1c-28.4,0-55.3,11.9-80.1,35.2c-0.1,0.1-0.1,0.1-0.1,0.1
			c-24.2,24.9-21,48-17,77.1c0.3,1.8,0.5,3.6,0.7,5.4c0.7,5-3.7,12.6-7.9,20c-6.3,11.1-12.8,22.6-4.8,28c13.6,9.3,16,27.5,18.3,45.2
			c0.5,4.2,1.1,8.5,1.8,12.8c1.2,7.3,7.3,10.8,18.7,10.8c5,0,10.5-0.7,15.7-1.2c4.5-0.5,8.7-1,12.1-1c1.9,0,3.4,0.1,4.5,0.5
			c13.7,3.7,25.7,31.4,30,48c0.3,1.4,1.4,2.4,2.8,2.8c0.3,0.1,0.7,0.1,1,0.1c1,0,2-0.4,2.7-1.1L208,495c1.1-1,1.5-2.6,1-4.1
			c-6.2-19.4,6.7-38.4,18.1-55.1c5-7.3,9.6-14.2,12.8-21C254.8,383.5,244.2,343.3,226.6,321.3z M129.4,387.5l-2.6-4.1
			c-2,0.5-3.9,0.9-5.9,1l-1.1,4.8c-0.4,1.7-2.1,2.8-3.8,2.4l-10-2.3c-1.7-0.4-2.8-2.1-2.4-3.8l1.1-4.8c-1.7-1-3.3-2.1-4.8-3.5
			l-4.1,2.6c-1.5,0.9-3.5,0.5-4.4-1l-5.5-8.7c-0.9-1.5-0.5-3.5,1-4.4l4.1-2.6c-0.5-2-0.9-3.9-1-5.9l-4.8-1.1
			c-1.7-0.4-2.8-2.1-2.4-3.8l2.3-10c0.4-1.7,2.1-2.8,3.8-2.4l4.8,1.1c1-1.7,2.1-3.3,3.5-4.8l-2.6-4.1c-0.9-1.5-0.5-3.5,1-4.4
			l8.7-5.5c1.5-0.9,3.5-0.5,4.4,1l2.6,4.1c2-0.5,3.9-0.9,5.9-1l1.1-4.8c0.4-1.7,2.1-2.8,3.8-2.4l10,2.3c1.7,0.4,2.8,2.1,2.4,3.8
			l-1.1,4.8c1.7,1,3.3,2.1,4.8,3.5l4.1-2.6c1.5-0.9,3.5-0.5,4.4,1l5.5,8.7c0.9,1.5,0.5,3.5-1,4.4l-4.1,2.6c0.5,2,0.9,3.9,1,5.9
			l4.8,1.1c1.7,0.4,2.8,2.1,2.4,3.8l-2.3,10c-0.4,1.7-2.1,2.8-3.8,2.4l-4.8-1.1c-1,1.7-2.1,3.3-3.5,4.8l2.6,4.1
			c0.9,1.5,0.5,3.5-1,4.4l-8.7,5.5C132.3,389.4,130.4,388.9,129.4,387.5z M171.4,405.6l-2.7,0.7c0,1.1-0.2,2.2-0.5,3.3l2.4,1.4
			c0.9,0.5,1.2,1.6,0.7,2.4l-2.9,5c-0.5,0.9-1.6,1.2-2.4,0.7l-2.4-1.4c-0.9,0.8-1.7,1.4-2.7,2l0.7,2.7c0.3,1-0.3,2-1.2,2.2l-5.6,1.5
			c-1,0.3-2-0.3-2.2-1.2l-0.7-2.8c-1.1,0-2.2-0.2-3.3-0.5l-1.4,2.4c-0.5,0.9-1.6,1.2-2.4,0.7l-5-2.9c-0.9-0.5-1.2-1.6-0.7-2.4
			l1.4-2.4c-0.8-0.9-1.4-1.7-2-2.7l-2.7,0.7c-1,0.3-2-0.3-2.2-1.2l-1.5-5.6c-0.3-1,0.3-2,1.2-2.2l2.7-0.7c0-1.1,0.2-2.2,0.5-3.3
			l-2.4-1.4c-0.9-0.5-1.2-1.6-0.7-2.4l2.9-5c0.5-0.9,1.6-1.2,2.4-0.7l2.4,1.4c0.9-0.8,1.7-1.4,2.7-2l-0.7-2.7c-0.3-1,0.3-2,1.2-2.2
			l5.6-1.5c1-0.3,2,0.3,2.2,1.2l0.7,2.7c1.1,0,2.2,0.2,3.3,0.5l1.4-2.4c0.5-0.9,1.6-1.2,2.4-0.7l5,2.9c0.9,0.5,1.2,1.6,0.7,2.4
			l-1.4,2.4c0.8,0.9,1.4,1.7,2,2.7l2.7-0.7c1-0.3,2,0.3,2.2,1.2l1.5,5.6C173,404.4,172.4,405.4,171.4,405.6z M210.8,364.8l-3.5,0.9
			c-0.1,1.5-0.3,2.9-0.6,4.4l3.1,1.8c1.1,0.7,1.5,2.1,0.9,3.3l-3.9,6.6c-0.7,1.1-2.1,1.5-3.3,0.9l-3.1-1.8c-1.1,1-2.3,2-3.5,2.7
			l1,3.5c0.3,1.2-0.4,2.6-1.7,2.9l-7.4,2c-1.2,0.3-2.6-0.4-2.9-1.7l-0.9-3.5c-1.5-0.1-2.9-0.3-4.4-0.6l-1.8,3.1
			c-0.7,1.1-2.1,1.5-3.3,0.9l-6.6-3.9c-1.1-0.7-1.5-2.1-0.9-3.3l1.8-3.1c-1-1.1-2-2.3-2.7-3.5l-3.5,0.9c-1.2,0.3-2.6-0.4-2.9-1.7
			l-2-7.4c-0.3-1.2,0.4-2.6,1.7-2.9l3.5-0.9c0.1-1.5,0.3-2.9,0.6-4.4l-3.1-1.8c-1.1-0.7-1.5-2.1-0.9-3.3l3.9-6.6
			c0.7-1.1,2.1-1.5,3.3-0.9l3.1,1.8c1.1-1,2.3-2,3.5-2.7l-0.9-3.5c-0.3-1.2,0.4-2.6,1.7-2.9l7.4-2c1.2-0.3,2.6,0.4,2.9,1.7l0.9,3.5
			c1.5,0.1,2.9,0.3,4.4,0.6l1.8-3.1c0.7-1.1,2.1-1.5,3.3-0.9l6.6,3.9c1.1,0.7,1.5,2.1,0.9,3.3l-1.8,3.1c1,1.1,2,2.3,2.7,3.5l3.5-0.9
			c1.2-0.3,2.6,0.4,2.9,1.7l2,7.4C212.9,363.2,212.1,364.5,210.8,364.8z"/>
	</g>
</g>
</svg>
