<?xml version="1.0" encoding="utf-8"?>
<!-- Generator: Adobe Illustrator 19.0.0, SVG Export Plug-In . SVG Version: 6.00 Build 0)  -->
<svg version="1.1" id="Слой_1" xmlns="http://www.w3.org/2000/svg" xmlns:xlink="http://www.w3.org/1999/xlink" x="0px" y="0px"
	 viewBox="-250 384.9 93.2 72" style="enable-background:new -250 384.9 93.2 72;" xml:space="preserve">
<style type="text/css">
	.st0{fill:#E83556;stroke:#D3D3D3;stroke-miterlimit:10;}
</style>
<g id="XMLID_3_">
	<path id="XMLID_4_" class="st0" d="M-163.5,390.1c0,2.5-2.9,12.6-8.6,30.3c-5.7,17.7-8.6,28.2-8.6,31.3h-12c0-2-1.4-8.1-4.2-18.4
		c-3.5-12.8-5.7-21.5-6.7-26.1h-0.8c-0.9,4.5-3,13.1-6.4,25.8c-2.7,10.1-4.1,16.3-4.1,18.7H-227c0-2.6-2.7-13.2-8.2-31.5
		c-5.4-18.5-8.1-28.5-8.1-30.1h14.8c0,1.8,1.5,9.2,4.5,22.3c3,13.1,4.5,20.8,4.5,23.3h0.8c0-3,1.7-10.7,5.2-23.2
		c3.4-12.5,5.2-20,5.2-22.3h12.1c0,1.6,1.7,9.1,5,22.4c3.4,13.3,5,21,5,23.2h0.7c0-2.4,1.5-9.8,4.6-22.1c3-12.3,4.6-20.1,4.6-23.5
		h12.8V390.1z"/>
</g>
</svg>
