<?xml version="1.0" encoding="utf-8"?>
<!-- Generator: Adobe Illustrator 19.0.0, SVG Export Plug-In . SVG Version: 6.00 Build 0)  -->
<svg version="1.1" id="Слой_1" xmlns="http://www.w3.org/2000/svg" xmlns:xlink="http://www.w3.org/1999/xlink" x="0px" y="0px"
	 viewBox="0 0 482.7 487.6" style="enable-background:new 0 0 482.7 487.6;" xml:space="preserve">
<style type="text/css">
	.st0{fill:#FCFCFC;}
</style>
<path class="st0" d="M455.4,276.9c-5.1-11.2-14-18-26.6-20.3c0.3-4.7,0.5-9.1,0.8-14c-14.3,0-28.2,0-42.5,0c0-6.7,0-12.9,0-19.7
	c14.3,0,28.2,0,43.6,0c-2.3-13.3-3.8-26-6.7-38.4c-7.1-29.8-21.1-56.3-40.7-79.8c-2.2-2.6-3.9-3.1-7.1-1.9
	c-12.4,4.6-25,8.9-38.1,13.4c8.4,19.9,15.2,40.6,19,62.1c-7,1.4-13.7,2.7-21,4.1c-0.8-4.3-1.5-9.5-2.9-14.5
	c-4.2-14.7-8.8-29.3-13.1-43.9c-1-3.3-2.8-3.7-6-3.3c-17,2.1-34,4.1-51.1,5.9c-2.9,0.3-4.4,1.3-6.3,3.7c-3.6,4.8-8.4,8.7-12.6,13.1
	c-1.1,1.2-3,2.5-3.1,3.8c-0.2,25-0.1,49.9-0.1,75.6c26.3,0,52.4,0,78.7,0c0,6.8,0,12.9,0,19.6c-26,0-52,0-78.4,0c0,33,0,65.4,0,98
	c17.1,1.6,34.1,3.1,52.6,4.9c-6.1,6.8-11.2,12.5-16.5,18.1c-0.7,0.7-2.5,0.5-3.7,0.4c-10.6-1-21.2-2.2-32.3-3.3
	c0,22.8,0,45.2,0,67.7c14.5,2.1,26.3-2,33.6-16.5c10.4,14.3,20.1,27.5,30.7,42.1c-14.6,3-28.1,6.8-41.8,8.4
	c-69.6,8.4-131.5-9.8-184.3-56C36.5,368.6,9.8,320.9,3.3,263.9C-7.9,165.8,28.8,89,111,34.6c31.4-20.7,66.7-31.5,104.3-34
	c69.9-4.7,130.3,17.3,180.5,65.9c35.8,34.6,57.6,77,66.2,126.1c4.5,26.2,4.5,52.3,0.2,78.6C461.5,275.4,460.2,277.6,455.4,276.9z
	 M220.9,339.9c0-32.3,0-64.6,0-97c-0.8-0.2-1.3-0.3-1.8-0.3c-25,0-49.9-0.1-74.9,0.1c-1.4,0-3,1.4-4.1,2.6
	c-3.5,3.7-6.9,7.5-10.1,11.5c-1.1,1.3-2.3,3.3-2.1,4.8c2.9,28.3,10.3,55.5,21.6,81.6c0.5,1.3,2.9,2.6,4.3,2.5
	c5.8-0.4,11.5-1.5,17.3-1.9C187.6,342.4,204,341.2,220.9,339.9z M221.2,222.6c0-25.5,0-50.5-0.1-75.5c0-1.3-1.8-2.9-3.1-3.7
	c-5.8-3.3-10.2-7.8-13.3-13.8c-0.8-1.6-3.2-3.2-5.1-3.5c-7.1-1.1-14.2-1.4-21.3-2.3c-10.7-1.4-21.3-3-31.9-4.5c-0.4,0.6-0.8,1-1,1.5
	c-10.6,26.5-16.2,54.1-18.3,82.4c-0.1,1.7,1.4,3.7,2.6,5.1c3.2,3.8,7.1,7,9.8,11.1c1.7,2.6,3.3,3.5,6.3,3.5c23.5-0.1,47,0,70.4-0.1
	C217.7,222.9,219.1,222.8,221.2,222.6z M36.3,242.6c0.6,6,0.9,11.3,1.7,16.5c5.3,38.1,20.6,71.7,45.4,101c2,2.3,3.6,2,6,1.2
	c10.3-3.2,20.7-6.3,31-9.3c2.6-0.8,5.4-1.2,8.3-1.9c-3.3-8.9-6.7-17.2-9.5-25.7c-6.4-18.9-10.9-38.3-13.4-58.2
	c-0.3-2.4-1.5-5.8-3.3-6.9c-6.3-3.5-11.4-7.9-14.7-14.5c-0.5-1.1-2.1-2.2-3.3-2.2C68.8,242.5,53,242.6,36.3,242.6z M127,114.9
	c-1.8-0.5-3.4-1-4.9-1.5c-10.5-3.7-21.1-7.2-31.4-11.3c-3.3-1.3-4.8-1-7,1.6c-19.2,22.5-32.8,48-40.6,76.5
	c-3.8,13.8-6.2,27.8-6.5,42.2c0.7,0.3,1.2,0.6,1.7,0.6c15.3,0,30.6,0.1,45.9-0.1c1.3,0,3.2-1.5,3.9-2.8c3.3-6.1,7.9-10.6,14.1-13.7
	c1.4-0.7,2.7-2.7,3-4.3c1.4-8.4,2.2-16.8,3.7-25.2C112.4,155.6,118.7,135.1,127,114.9z M241,35.7c0,1.9,0,3.6,0,5.2
	c0,14.3,0.2,28.6-0.1,42.9c-0.1,4.4,0.5,7.4,5.1,9.3c2.8,1.1,5.8,3.5,7,6.1c3.5,7.5,9.1,8.5,16.2,6.6c0.3-0.1,0.7,0,1-0.1
	c12.6-1.6,25.3-3.3,38.7-5c-1.4-2.6-2.2-4.3-3.2-6c-11.6-19.8-26.2-37.1-43.1-52.7C256.1,36,249.1,35.6,241,35.7z M154.8,100.6
	c15.9,2.1,30.9,4.2,46,5.9c1.5,0.2,3.5-1.5,4.9-2.8c4.1-3.8,7.7-8.2,12.1-11.5c2.5-1.8,3.5-3.2,3.5-6.2c-0.1-15.2-0.1-30.3-0.1-45.5
	c0-1.6-0.1-3.2-0.2-4.7c-14.6-0.2-16.9,0.7-26.7,10.3c-14.6,14.5-26.9,30.9-36.8,48.9C156.8,96.5,156.1,98,154.8,100.6z
	 M220.8,428.8c0-23.4,0-46.1,0-69.9c-20.5,1.8-40.5,3.5-60.7,5.2c0.4,1.6,0.4,2.1,0.6,2.6c11.3,21.3,24.9,41,41.6,58.4
	c1.1,1.1,2.8,2,4.3,2.2C211.2,427.9,215.8,428.3,220.8,428.8z M293.1,44.6c9.6,13.5,19.1,26.8,28.5,40.3c2.6,3.6,4,9.5,7.3,10.8
	c3.6,1.4,8.9-1,13.4-2.2c7.6-2,15.1-4.4,23.5-6.9C343.7,66.9,319.8,53.1,293.1,44.6z M100.7,376.8c9.6,13.1,53.3,39.1,66.2,40.3
	c-9.2-15.2-18.6-30.8-28.1-46.4c-0.5-0.9-2.1-1.9-3-1.7C124.2,371.4,112.7,374.1,100.7,376.8z M100.1,86.9c12,3.1,22.9,6.1,33.8,8.7
	c1,0.2,2.9-1.6,3.7-2.9c6.4-10.1,12.6-20.4,19.1-30.4c3.4-5.3,7.6-10.1,11.4-15.1C142.9,55.1,120.8,68.3,100.1,86.9z M132.1,232.6
	c0-10-8.1-18.1-18.1-18.1c-10,0-18.1,8.1-18.1,18.1c0,10,8.1,18,18.1,18C124.1,250.7,132.2,242.6,132.1,232.6z M249.2,117.5
	c-0.1-10.1-8.2-18-18.2-18c-10,0-18,8.2-18,18.2c0.1,10,8.1,18,18.2,18C241.1,135.7,249.3,127.5,249.2,117.5z M316.2,342.4
	c-0.7,1.1-1.2,2.4-2.1,3.3c-8.8,9.8-17.7,19.5-26.6,29.2c-7.5,8.2-7.5,18.2-0.8,27.2c18.8,25.6,37.5,51.4,56.1,77.2
	c3.7,5.1,8.3,8.2,14.6,8.2c35.7,0,71.3,0,107,0c7.9,0,14.2-4.4,16.7-11.9c1.1-3.2,1.6-6.8,1.6-10.3c-0.1-35.6-0.4-71.3-0.6-106.9
	c-0.1-16.5,0.1-33-0.1-49.5c-0.1-11.3-9.9-18.8-21.6-16.5c0,1.7,0,3.5,0,5.3c0,15,0.1,30-0.1,45c-0.1,8.3-4.9,14.7-12.2,17
	c-4.8,1.5-5.6,0.9-5.7-4c0-10.7,0-21.3,0-32c0-11.5,0.2-23-0.1-34.5c-0.3-11.3-9.2-18.6-20.4-16.8c0,1.7,0,3.5,0,5.3c0,18,0,36,0,54
	c0,2.6-0.2,5.4-0.9,7.9c-1.9,7-8.3,12-15,11.7c0-1.8,0-3.6,0-5.4c0-20.3,0.1-40.7,0-61c-0.1-12.3-10.5-20.6-21.7-17.3
	c0,1.7,0,3.6,0,5.4c0,20.3,0,40.7,0,61c0,7.9-4.5,12.8-12.8,13.6c0-2.2,0-4.3,0-6.4c0-42.2,0.1-84.3-0.1-126.5c0-3.7-0.7-7.7-2.2-11
	c-3.5-7.4-12.2-10.7-20.4-8.7c-8.1,2-13.4,9.1-13.4,18.2c-0.1,56.7-0.1,113.3-0.2,170c0,2.7,0.2,5.4-0.3,8
	c-1.1,6.1-7.9,9.4-12.5,5.7c-2.2-1.8-4-5.5-4.1-8.3c-0.4-15-0.2-29.9-0.2-44.9C317.3,343.1,316.8,342.8,316.2,342.4z"/>
</svg>
